<?xml version="1.0" standalone="no"?>
<!DOCTYPE svg PUBLIC "-//W3C//DTD SVG 20010904//EN"
 "http://www.w3.org/TR/2001/REC-SVG-20010904/DTD/svg10.dtd">
<svg version="1.0" xmlns="http://www.w3.org/2000/svg"
 width="1049.000000pt" height="1049.000000pt" viewBox="0 0 1049.000000 1049.000000"
 preserveAspectRatio="xMidYMid meet">
<metadata>
Created by potrace 1.11, written by Peter Selinger 2001-2013
</metadata>
<g transform="translate(0.000000,1049.000000) scale(0.100000,-0.100000)"
fill="#000000" stroke="none">
<path d="M0 5245 l0 -5245 404 0 c377 0 405 1 410 18 12 37 35 274 41 417 8
206 37 396 95 642 16 66 39 165 50 220 48 222 196 665 280 833 15 30 30 72 34
92 12 64 226 270 381 365 28 16 114 69 192 117 85 52 215 119 325 168 245 108
269 117 368 139 166 38 180 37 141 -12 -101 -129 -219 -527 -270 -904 -30
-225 -31 -239 -41 -527 -5 -147 -17 -327 -25 -400 -8 -73 -19 -216 -25 -318
-5 -102 -15 -252 -21 -335 -12 -158 -7 -323 14 -440 l12 -70 1323 -3 c727 -1
1322 1 1322 4 0 3 -25 68 -55 144 -118 294 -156 416 -157 510 -1 30 -3 45 -5
32 -6 -28 -20 -28 -28 1 -4 12 -17 42 -30 67 -12 25 -46 113 -73 195 -28 83
-67 195 -87 250 -20 55 -56 154 -80 220 -23 66 -65 183 -93 260 -27 77 -98
286 -157 465 -59 179 -134 406 -167 505 -32 99 -66 209 -74 245 -12 50 -31 88
-83 165 -124 181 -151 255 -151 409 0 85 7 125 46 280 87 344 117 446 139 462
9 7 14 18 10 24 -4 7 -9 35 -11 64 -2 28 -6 69 -9 91 -5 37 -15 159 -18 230
-1 19 3 31 13 33 17 3 20 -33 6 -56 -4 -7 -1 -15 8 -18 9 -3 16 -12 16 -19 0
-7 7 -18 15 -25 13 -11 15 -10 9 6 -4 15 -4 16 4 5 6 -8 8 -20 5 -28 -3 -7 3
-16 12 -20 26 -9 78 -67 65 -71 -15 -5 7 -32 26 -32 8 0 14 -5 14 -11 0 -6 -7
-8 -16 -5 -12 5 -15 2 -10 -10 3 -8 6 -18 6 -20 0 -3 4 -2 10 1 5 3 15 -3 21
-14 7 -10 19 -17 26 -14 7 3 13 0 13 -6 0 -6 8 -11 18 -12 12 0 10 -3 -7 -10
-14 -5 -32 -7 -40 -4 -9 3 -5 -4 9 -15 14 -11 19 -20 12 -20 -7 0 -10 -4 -7
-10 3 -5 11 -10 16 -10 6 0 7 5 3 12 -5 8 -2 9 9 5 10 -3 17 -2 17 3 0 6 -7
10 -16 10 -8 0 -12 5 -8 11 4 8 9 8 17 0 6 -6 19 -11 29 -11 24 0 23 -17 -2
-30 -11 -6 -20 -18 -20 -27 0 -13 -3 -13 -15 -3 -8 7 -15 8 -15 2 0 -5 7 -15
15 -22 12 -10 15 -10 15 0 0 7 7 10 16 6 14 -5 15 -4 4 9 -7 9 -9 19 -5 23 4
4 10 1 12 -6 3 -6 9 -10 14 -7 5 4 6 0 3 -8 -4 -10 2 -14 18 -12 13 2 29 -4
37 -12 12 -13 11 -14 -5 -9 -10 3 -26 1 -34 -4 -10 -7 -11 -10 -2 -11 27 -3
31 -4 38 -11 4 -5 2 -8 -5 -8 -7 0 -9 -5 -6 -10 4 -6 11 -8 16 -5 12 8 7 -68
-6 -77 -5 -4 0 -8 13 -8 12 0 34 -7 47 -16 20 -13 28 -14 40 -4 10 9 15 9 15
1 0 -6 6 -11 14 -11 7 0 19 -7 26 -15 10 -12 10 -15 -4 -15 -9 0 -16 5 -16 10
0 6 -4 10 -9 10 -5 0 -4 -18 1 -40 6 -23 13 -38 16 -35 3 2 10 0 17 -5 7 -5
27 -12 46 -14 19 -3 36 -5 38 -5 2 -1 -1 -7 -6 -14 -18 -23 -22 -44 -7 -44 8
0 13 7 12 16 -2 9 2 16 9 16 6 0 14 3 18 7 4 4 18 -5 31 -19 26 -28 25 -44 -2
-22 -22 18 -44 20 -38 4 3 -7 22 -20 42 -28 20 -8 45 -24 56 -36 10 -11 23
-18 27 -15 5 3 9 0 9 -5 0 -6 10 -9 23 -7 12 2 27 0 33 -5 6 -5 19 -10 30 -12
29 -6 71 -25 75 -34 5 -11 67 -40 103 -48 17 -3 39 -16 49 -28 l20 -22 -6 23
c-5 22 7 30 18 12 4 -6 10 -8 15 -5 5 3 11 1 15 -5 3 -5 15 -10 26 -10 21 0
26 -15 6 -24 -8 -4 -7 -5 3 -5 30 2 39 -1 43 -18 4 -15 5 -15 6 2 0 11 -6 31
-15 44 -13 17 -14 25 -5 34 9 9 11 8 6 -5 -5 -11 0 -18 16 -23 23 -8 43 11 31
30 -3 5 3 3 13 -5 11 -9 16 -10 11 -3 -5 9 1 13 22 13 16 0 32 3 36 7 12 12
30 10 42 -6 8 -11 13 -11 18 -2 5 7 1 17 -9 24 -14 11 -13 13 8 15 21 1 23 -2
19 -25 -5 -24 -3 -25 24 -19 27 7 43 21 44 39 0 13 -21 7 -26 -8 -7 -17 -34
-21 -34 -5 0 6 7 13 15 16 8 4 15 11 15 16 0 6 -7 8 -15 4 -9 -3 -15 0 -15 9
0 19 5 19 34 0 30 -20 56 -11 48 18 -5 20 -6 20 -13 1 -6 -16 -8 -14 -8 9 -1
17 3 26 9 22 6 -3 12 0 15 7 6 16 45 22 45 7 0 -5 -8 -9 -18 -9 -12 0 -18 -8
-20 -25 -1 -21 3 -25 24 -25 14 0 23 4 19 10 -3 6 1 10 9 10 9 0 16 5 16 10 0
6 3 9 8 9 20 -3 42 2 42 11 0 5 -7 7 -15 4 -8 -4 -15 -1 -15 5 0 6 5 11 11 11
5 0 7 5 3 12 -5 8 -13 5 -25 -10 -17 -22 -36 -31 -24 -12 3 5 -6 21 -20 36
-22 22 -23 25 -5 19 14 -5 20 -2 20 9 0 9 7 16 15 16 8 0 15 -6 15 -14 0 -21
28 -27 39 -8 6 10 11 12 11 5 0 -18 20 -16 20 2 0 8 6 12 14 9 8 -3 12 -13 10
-22 -4 -13 -3 -13 6 2 10 15 9 20 -1 27 -11 7 -10 9 4 9 9 0 17 -4 17 -10 0
-6 10 -5 25 2 14 6 25 18 25 27 0 14 2 14 10 1 7 -12 12 -11 29 8 11 13 22 23
25 23 16 -1 33 12 33 25 0 8 -6 13 -14 10 -7 -3 -13 -1 -13 4 0 6 -5 10 -11
10 -5 0 -7 -5 -4 -10 3 -6 0 -10 -8 -10 -14 0 -32 28 -24 37 2 2 16 -1 30 -6
18 -7 30 -6 43 4 15 12 16 15 4 16 -8 1 -19 1 -23 0 -5 -1 -6 3 -2 9 3 6 10 8
15 5 13 -8 87 39 83 53 -3 8 1 10 13 5 12 -5 15 -3 9 6 -6 10 -3 11 12 3 12
-7 25 -7 36 -1 22 13 22 39 0 41 -10 0 -22 2 -28 3 -5 2 -16 3 -22 4 -29 2
-10 17 22 18 19 1 35 -3 35 -8 0 -6 6 -4 14 3 10 9 11 18 5 31 -7 13 -6 17 6
17 8 0 15 -5 15 -12 0 -8 3 -9 10 -2 6 6 6 21 1 42 -11 36 4 35 19 -2 7 -17 9
-18 9 -3 1 10 5 15 11 12 5 -3 6 -20 3 -38 -6 -30 -5 -31 10 -15 9 9 14 24 11
32 -3 9 -1 16 5 16 6 0 11 -5 11 -12 0 -6 3 -8 6 -5 4 3 15 2 25 -4 15 -7 19
-6 19 5 0 10 -6 13 -15 10 -18 -7 -21 21 -3 32 7 5 8 3 3 -6 -6 -10 -1 -12 19
-8 14 3 26 1 26 -3 0 -5 -4 -9 -10 -9 -5 0 -10 -4 -10 -9 0 -6 9 -9 20 -8 11
1 20 1 20 2 0 0 -4 15 -9 33 -6 18 -6 30 -2 27 5 -2 11 -15 14 -27 2 -13 7
-30 11 -39 6 -13 1 -15 -24 -11 -19 3 -30 0 -30 -8 0 -7 -7 -10 -15 -6 -8 3
-15 1 -15 -4 0 -6 -9 -19 -21 -31 -11 -11 -18 -24 -14 -27 3 -4 9 -2 13 4 9
15 53 38 72 39 8 0 20 4 27 8 9 6 10 1 1 -24 -7 -20 -13 -27 -18 -19 -4 7 -10
8 -13 3 -5 -8 32 -33 49 -33 3 0 18 28 34 62 26 57 39 109 40 163 0 19 0 19
19 0 10 -11 31 -54 45 -95 15 -41 48 -127 73 -190 26 -63 52 -133 60 -155 7
-22 18 -49 23 -60 5 -11 16 -55 26 -98 29 -140 -1 -290 -101 -508 -72 -155
-77 -167 -81 -214 -8 -99 -104 -599 -160 -840 -72 -305 -137 -565 -183 -730
-60 -214 -74 -274 -106 -460 -75 -439 -165 -856 -196 -914 -10 -20 -19 -41
-19 -48 0 -10 276 -13 1390 -13 l1390 0 1 23 c4 73 -4 274 -17 397 -3 30 -7
82 -9 116 -4 68 -12 134 -25 209 -5 28 -17 95 -25 150 -9 55 -31 156 -50 225
-53 193 -173 648 -215 815 -32 127 -92 334 -261 905 -48 164 -120 362 -160
443 -31 60 -36 77 -23 77 49 0 344 -73 549 -135 409 -125 531 -170 677 -248
100 -54 228 -156 228 -181 0 -7 10 -21 21 -32 32 -28 99 -119 152 -206 121
-196 223 -464 415 -1093 41 -136 72 -261 147 -610 37 -170 186 -794 201 -842
2 -10 55 -13 219 -13 l215 0 0 5245 0 5245 -1160 0 c-1102 0 -1160 -1 -1153
-17 4 -10 8 -29 7 -43 -3 -72 -5 -81 -13 -76 -4 3 -6 -6 -3 -19 2 -15 0 -25
-7 -25 -6 0 -11 -7 -11 -15 0 -8 -7 -15 -15 -15 -8 0 -15 -4 -15 -9 0 -5 -13
-12 -30 -16 -16 -4 -32 -11 -36 -16 -3 -5 -23 -18 -45 -29 -33 -17 -39 -18
-39 -5 0 8 -9 15 -20 15 -11 0 -20 -5 -20 -10 0 -6 -6 -5 -14 2 -8 7 -13 17
-13 23 1 5 -4 10 -10 11 -7 1 -17 2 -22 3 -20 2 -41 34 -36 51 3 10 1 21 -4
24 -6 4 -8 13 -4 21 3 9 -1 15 -10 15 -9 0 -18 -8 -21 -17 -2 -10 -2 0 1 22 6
46 10 55 24 55 6 0 6 -8 -1 -20 -7 -14 -7 -20 0 -20 5 0 10 7 10 15 0 8 9 20
19 27 10 6 17 18 14 25 -3 8 2 13 15 13 11 0 22 7 26 15 5 13 -444 15 -3949
15 l-3955 0 0 -5245z m3736 5224 c3 -6 15 -9 25 -6 11 3 19 1 19 -4 0 -5 5 -9
12 -9 6 0 23 -10 36 -22 14 -13 22 -17 17 -9 -5 9 -4 12 3 7 7 -4 12 -11 12
-17 0 -5 8 -18 18 -28 36 -40 42 -51 42 -71 0 -11 -4 -20 -9 -20 -4 0 -7 -11
-6 -25 2 -16 -2 -25 -11 -25 -8 0 -20 -11 -26 -25 -6 -14 -17 -25 -25 -25 -7
0 -13 -6 -13 -12 0 -9 -4 -8 -10 2 -9 14 -15 7 -11 -14 1 -5 -4 -4 -11 2 -8 6
-19 7 -27 2 -27 -16 -105 16 -148 62 -9 9 -20 15 -24 12 -11 -6 -25 45 -28 99
-1 35 2 49 13 53 9 3 13 10 10 15 -3 5 2 9 11 9 11 0 15 5 12 14 -6 14 18 26
78 39 33 8 34 7 41 -4z m-455 -139 c6 0 8 -4 5 -9 -4 -5 3 -7 14 -4 12 3 20 0
20 -8 0 -8 6 -5 16 7 15 19 16 19 8 -1 -3 -11 -6 -28 -6 -37 0 -10 -4 -21 -10
-24 -6 -4 -5 -10 3 -15 11 -7 9 -10 -9 -15 -18 -5 -20 -9 -10 -21 10 -12 9
-15 -7 -13 -11 1 -31 -1 -43 -5 -18 -6 -20 -10 -10 -16 9 -6 7 -9 -9 -9 -13 0
-23 -4 -23 -8 0 -5 -7 -9 -15 -9 -8 0 -13 3 -10 5 3 3 -3 11 -13 19 -9 8 -12
12 -6 9 7 -3 14 0 17 7 3 9 -3 13 -17 13 -19 -1 -21 4 -19 44 2 32 0 41 -7 30
-5 -8 -10 -10 -10 -4 0 18 13 24 27 13 10 -9 13 -7 13 9 0 21 18 32 53 32 18
0 19 2 7 10 -13 8 -12 10 3 10 9 0 18 6 18 13 1 6 3 4 6 -5 2 -10 9 -18 14
-18z m43 8 c-7 -11 -34 -10 -34 1 0 6 9 9 19 8 11 0 17 -5 15 -9z m5926 -1388
c6 -11 18 -20 27 -20 10 0 14 -6 10 -20 -3 -11 -1 -20 4 -20 5 0 9 -10 10 -22
0 -22 1 -22 8 -3 5 11 4 22 0 23 -14 5 -11 22 6 39 14 14 15 13 9 -12 -5 -20
-4 -26 5 -21 6 4 11 2 11 -3 0 -6 -4 -11 -10 -11 -5 0 -9 -3 -9 -7 3 -21 -3
-86 -8 -75 -6 14 -33 16 -33 2 0 -5 -5 -10 -11 -10 -5 0 -7 5 -4 10 3 6 1 10
-4 10 -6 0 -11 -6 -11 -12 0 -9 -3 -9 -9 1 -5 8 -7 21 -4 30 4 14 3 14 -9 0
-10 -13 -16 -14 -25 -4 -20 21 -44 75 -33 75 5 0 10 8 11 18 0 12 2 13 6 3 4
-10 7 -11 13 -1 12 19 32 1 25 -23 -5 -17 -4 -19 4 -7 14 19 14 60 1 60 -5 0
-10 5 -10 10 0 17 19 11 30 -10z m44 2 c2 -4 -4 -9 -15 -9 -10 -1 -19 2 -19 8
0 11 27 12 34 1z m636 -273 c0 -6 -4 -7 -10 -4 -5 3 -10 11 -10 16 0 6 5 7 10
4 6 -3 10 -11 10 -16z m-42 -5 c5 3 12 -1 15 -9 4 -9 1 -12 -9 -8 -8 3 -14 -1
-15 -8 0 -8 -4 -5 -9 6 -11 26 -12 44 -1 26 5 -7 13 -11 19 -7z m-4626 -79
c36 -4 74 -13 85 -22 17 -14 17 -14 -2 -8 -28 10 -165 22 -165 14 0 -3 -10
-11 -22 -16 -18 -8 -7 -10 47 -7 58 3 65 2 43 -7 -31 -12 -37 -28 -10 -30 38
-2 77 3 80 12 5 12 62 11 62 -1 0 -5 -3 -10 -7 -11 -52 -5 -63 -16 -27 -25 16
-4 35 -14 43 -21 11 -12 17 -11 38 2 16 11 34 14 50 10 29 -7 55 -30 45 -39
-3 -4 1 -4 10 -1 9 4 19 1 23 -5 6 -9 10 -9 16 1 6 10 13 10 33 1 32 -14 35
-35 4 -24 -25 9 -58 5 -58 -7 0 -10 90 -42 101 -35 5 3 9 0 9 -7 0 -7 3 -10 6
-6 4 3 21 0 38 -7 17 -7 37 -11 44 -8 7 2 11 -2 10 -10 -2 -7 5 -12 14 -12 10
1 15 -2 12 -7 -3 -5 8 -14 25 -20 34 -12 32 -39 -3 -39 -16 0 -18 2 -7 9 11 7
5 13 -24 25 -20 9 -47 16 -59 15 -18 -1 -17 -3 7 -12 32 -13 36 -27 7 -27 -11
0 -20 5 -20 11 0 5 -4 8 -9 4 -5 -3 -17 5 -26 17 l-17 23 7 -24 c6 -19 4 -23
-9 -18 -8 3 -19 0 -23 -8 -5 -8 -19 -19 -33 -25 -23 -9 -21 -10 12 -6 21 3 40
0 43 -5 4 -5 -1 -9 -10 -9 -10 0 -13 -5 -9 -12 5 -8 2 -9 -12 -3 -10 4 -29 8
-41 8 -13 -1 -23 2 -23 7 0 14 45 59 70 69 21 8 22 10 5 11 -27 1 -59 26 -50
39 3 6 -1 11 -9 11 -10 0 -13 -6 -10 -15 4 -9 0 -15 -9 -15 -21 0 -33 20 -17
30 8 5 9 13 2 26 -5 11 -7 25 -5 32 3 6 0 12 -6 12 -6 0 -10 -6 -8 -12 1 -7
-5 -11 -13 -9 -52 13 -62 10 -23 -9 l42 -20 -30 -31 c-17 -18 -36 -28 -45 -25
-7 3 -14 1 -14 -4 0 -17 -62 -11 -107 11 -37 18 -46 19 -60 8 -15 -13 -15 -12
-3 10 l12 24 -48 -6 c-29 -3 -41 -2 -29 2 14 6 4 8 -32 9 -32 0 -63 6 -78 16
-14 9 -25 14 -25 11 0 -26 -22 -44 -41 -34 -9 4 -20 5 -24 1 -5 -4 -5 -1 -1 6
5 7 14 11 22 8 7 -3 16 -1 19 5 4 5 -2 12 -11 16 -16 6 -16 7 -1 12 15 6 15 7
-2 18 -15 10 -26 8 -57 -7 -37 -19 -45 -20 -96 -6 -17 5 -45 2 -77 -9 -28 -9
-55 -14 -60 -11 -5 3 -7 -2 -4 -12 3 -14 -3 -18 -29 -20 -18 -2 -43 -10 -56
-18 -18 -12 -22 -12 -17 -3 5 8 0 6 -11 -3 -12 -10 -30 -16 -42 -13 -12 3 -31
7 -42 9 -11 3 -22 0 -25 -5 -4 -5 -11 -7 -16 -3 -5 3 -8 2 -7 -3 5 -14 -30
-55 -41 -48 -17 10 -13 23 5 21 9 0 18 7 20 17 1 10 5 26 9 35 5 14 7 14 15 2
8 -12 11 -12 27 1 10 9 27 19 38 23 l20 7 -20 11 c-11 6 -29 18 -39 27 -18 15
-18 15 -6 -6 19 -30 -2 -58 -32 -42 -15 8 -19 8 -14 0 5 -7 -5 -11 -26 -12
-29 -1 -30 -2 -9 -8 36 -10 35 -25 -2 -39 -44 -16 -52 -15 -37 3 15 19 9 28
-14 19 -9 -3 -16 -15 -16 -25 0 -10 -3 -18 -7 -18 -22 4 -53 -2 -53 -9 0 -5
12 -13 28 -20 26 -11 26 -11 2 -7 -28 5 -100 -9 -109 -22 -3 -4 -17 -9 -31
-11 -13 -1 -37 -14 -52 -29 -23 -22 -30 -24 -43 -13 -8 7 -18 10 -22 6 -3 -3
-1 -6 5 -6 7 0 12 -4 12 -10 0 -5 -11 -10 -24 -10 -13 0 -26 -7 -30 -15 -3 -8
-12 -15 -21 -15 -8 0 -15 -5 -15 -11 0 -6 7 -8 18 -4 13 5 14 4 5 -6 -10 -10
-15 -9 -28 1 -13 11 -19 8 -17 -11 0 -3 -13 -4 -29 -3 -16 1 -29 -2 -29 -7 0
-5 -10 -9 -22 -10 -22 -1 -22 -1 2 -8 24 -7 24 -7 -8 -14 -19 -4 -31 -11 -27
-17 3 -5 1 -10 -5 -10 -7 0 -9 7 -6 17 4 9 1 20 -6 25 -10 5 -8 8 5 8 29 0 79
30 74 44 -4 9 9 18 33 25 22 6 52 23 68 36 17 14 35 25 41 25 6 0 11 5 11 10
0 6 12 11 28 11 16 1 20 3 10 6 -22 5 -23 22 -3 29 22 9 18 22 -7 27 -13 2 0
5 27 7 44 2 46 3 20 10 l-30 7 30 7 c38 10 81 25 122 42 17 8 38 14 48 14 9 0
13 5 10 10 -3 6 -16 10 -27 10 -31 0 -18 8 22 14 19 2 46 8 60 12 22 7 24 6
11 -9 -7 -9 -18 -14 -24 -10 -6 3 -7 1 -3 -5 11 -18 28 -14 60 13 16 14 35 25
43 25 7 0 13 5 13 11 0 7 18 10 48 7 37 -2 47 0 45 12 -2 11 9 16 43 18 41 2
44 1 30 -13 -8 -9 -29 -21 -46 -27 -44 -15 -34 -17 28 -7 55 8 142 45 142 59
0 15 -39 18 -44 3 -5 -12 -9 -13 -20 -4 -7 6 -20 10 -27 8 -8 -2 -11 -2 -6 0
4 3 4 9 1 15 -5 7 2 9 19 4 17 -4 29 -1 34 7 8 12 73 32 143 43 114 17 140 10
72 -20 -44 -20 -73 -56 -45 -56 15 0 14 -2 -3 -14 -10 -8 -16 -17 -13 -20 8
-9 115 28 111 38 -2 5 2 13 10 18 9 7 4 8 -14 4 -16 -4 -28 -2 -28 4 0 5 7 10
15 10 9 0 18 6 21 14 3 8 12 12 20 9 10 -3 12 0 8 10 -4 12 3 14 39 10 28 -3
47 -1 52 6 4 7 19 10 33 7 15 -3 57 -8 94 -11z m188 -65 c5 9 14 10 26 5 20
-9 30 -12 52 -14 6 0 12 -6 12 -12 0 -6 -9 -8 -21 -4 -14 5 -25 2 -30 -6 -7
-12 -9 -12 -9 -1 0 9 -8 12 -27 8 -23 -5 -32 0 -48 22 l-20 27 29 -19 c22 -14
30 -15 36 -6z m180 -30 c13 -8 12 -11 -5 -24 -16 -12 -17 -16 -5 -17 8 -1 25
-3 38 -4 12 -1 22 2 22 6 0 5 10 9 22 9 21 0 21 0 2 -15 -19 -14 -19 -14 1
-16 11 -1 23 -1 27 0 4 0 12 -8 18 -19 6 -11 20 -20 30 -20 11 0 20 -5 20 -10
0 -10 41 -31 65 -35 46 -6 86 -19 96 -31 9 -11 8 -14 -5 -14 -9 0 -16 5 -16
11 0 5 -4 7 -10 4 -5 -3 -18 -2 -28 4 -10 6 -24 6 -32 1 -10 -6 -27 1 -55 24
-44 36 -117 76 -137 76 -8 -1 -5 -6 6 -15 11 -8 17 -18 13 -21 -9 -9 -37 15
-37 31 0 8 -13 16 -30 20 -16 4 -30 11 -30 16 0 5 -10 9 -22 8 -13 -1 -32 -1
-43 -1 -18 2 -18 3 3 18 15 10 33 14 50 10 20 -5 23 -4 12 4 -13 9 -13 10 0
10 8 0 22 -5 30 -10z m107 -16 c-3 -3 -12 -4 -19 -1 -8 3 -5 6 6 6 11 1 17 -2
13 -5z m-849 -86 c-6 -16 -21 -14 -24 4 -1 11 3 15 12 11 8 -3 13 -10 12 -15z
m857 -28 c3 -5 1 -10 -4 -10 -6 0 -11 5 -11 10 0 6 2 10 4 10 3 0 8 -4 11 -10z
m275 -70 c0 -4 -6 -10 -13 -13 -7 -3 -13 3 -13 13 0 10 6 16 13 13 7 -3 13 -9
13 -13z m-603 -16 c-3 -3 -12 -4 -19 -1 -8 3 -5 6 6 6 11 1 17 -2 13 -5z m653
-58 c7 -9 18 -16 24 -16 6 0 23 -13 39 -29 l27 -28 -45 7 c-51 8 -71 20 -34
20 23 1 23 1 5 15 -11 8 -29 15 -41 15 -15 0 -21 7 -23 25 -2 22 1 24 16 16
10 -6 24 -17 32 -25z m-202 -1 c-3 -3 -9 2 -12 12 -6 14 -5 15 5 6 7 -7 10
-15 7 -18z m36 3 c-5 -8 0 -9 14 -6 12 4 22 3 22 -1 0 -4 19 -16 43 -26 23
-10 62 -28 87 -39 25 -11 48 -19 53 -18 4 1 7 -2 7 -8 0 -13 -6 -13 -32 1 -15
8 -19 8 -14 0 15 -24 -32 -2 -77 35 -18 15 -42 24 -62 24 -33 0 -64 28 -48 44
10 10 15 7 7 -6z m-1568 -10 c4 -6 3 -8 -3 -5 -6 4 -17 -1 -24 -10 -12 -15
-11 -16 8 -11 13 4 26 2 29 -3 3 -5 11 -9 17 -9 7 0 6 4 -3 10 -11 7 -11 10
-2 10 7 0 11 4 8 9 -3 5 7 11 24 13 16 2 27 1 24 -4 -3 -4 -13 -8 -22 -8 -15
0 -15 -2 -2 -10 13 -8 13 -11 -2 -26 -14 -15 -21 -15 -47 -5 -16 7 -39 10 -50
6 -25 -8 -61 2 -61 17 0 7 5 6 15 -2 15 -13 39 -5 30 11 -4 5 3 9 14 9 12 0
21 5 21 10 0 14 17 13 26 -2z m1524 -32 c-7 -7 -14 -6 -21 1 -9 9 -7 12 9 10
14 -1 18 -5 12 -11z m-1720 -56 c0 -5 -7 -10 -16 -10 -9 0 -12 -5 -8 -12 4 -7
3 -8 -4 -4 -17 10 -15 24 6 29 9 3 18 5 20 6 1 0 2 -3 2 -9z m1945 -16 c8 3
15 1 15 -3 0 -17 -30 -20 -45 -5 -19 20 -20 30 0 14 8 -7 22 -10 30 -6z m100
-24 c4 0 1 8 -6 18 -12 15 -12 16 1 6 8 -6 22 -13 30 -16 12 -4 11 -7 -5 -15
-11 -6 -33 -13 -50 -16 -16 -4 -24 -4 -17 -1 17 8 15 24 -3 24 -8 0 -15 4 -15
9 0 16 24 19 41 5 8 -8 19 -14 24 -14z m115 -26 c0 -2 -7 -4 -15 -4 -8 0 -15
4 -15 10 0 5 7 7 15 4 8 -4 15 -8 15 -10z m-102 -7 c-1 -2 3 -11 11 -20 7 -10
9 -17 4 -17 -16 0 -32 22 -26 37 3 7 8 12 10 9 3 -2 3 -6 1 -9z m-2371 -3 c-3
-3 -12 -4 -19 -1 -8 3 -5 6 6 6 11 1 17 -2 13 -5z m133 -14 c0 -5 -4 -10 -10
-10 -5 0 -10 5 -10 10 0 6 5 10 10 10 6 0 10 -4 10 -10z m2287 4 c-3 -3 -12
-4 -19 -1 -8 3 -5 6 6 6 11 1 17 -2 13 -5z m-75 -22 c-10 -3 -10 -7 0 -20 12
-15 11 -16 -4 -3 -23 18 -24 43 -1 34 11 -4 13 -8 5 -11z m-2132 2 c0 -6 -83
-44 -87 -40 -7 7 53 43 72 43 8 0 15 -1 15 -3z m45 -14 c-3 -5 -11 -10 -16
-10 -6 0 -7 5 -4 10 3 6 11 10 16 10 6 0 7 -4 4 -10z m2165 0 c0 -5 -2 -10 -4
-10 -3 0 -8 5 -11 10 -3 6 -1 10 4 10 6 0 11 -4 11 -10z m-2411 -17 c-33 -43
-69 -77 -63 -60 4 12 1 17 -11 17 -13 0 -11 6 12 30 31 33 87 45 62 13z m2462
-3 c5 0 9 -5 9 -11 0 -5 -4 -7 -10 -4 -5 3 -10 2 -10 -4 0 -6 17 -20 38 -31
23 -13 29 -19 15 -16 -13 2 -23 -1 -23 -7 -1 -14 -25 16 -47 57 -14 27 -14 28
2 22 9 -3 21 -6 26 -6z m-2096 -20 c-3 -5 -18 -10 -33 -9 l-27 1 25 8 c35 11
42 11 35 0z m-70 -10 c-3 -5 -12 -10 -18 -10 -7 0 -6 4 3 10 19 12 23 12 15 0z
m-31 -26 c5 -14 4 -15 -9 -4 -17 14 -19 20 -6 20 5 0 12 -7 15 -16z m69 9 c-7
-2 -19 -2 -25 0 -7 3 -2 5 12 5 14 0 19 -2 13 -5z m2 -23 c-3 -5 -11 -10 -16
-10 -6 0 -7 5 -4 10 3 6 11 10 16 10 6 0 7 -4 4 -10z m-460 -78 c-16 -15 -31
-32 -33 -37 -3 -13 -52 -26 -52 -14 0 5 6 9 13 9 7 0 28 15 47 34 19 19 40 35
45 35 6 0 -3 -12 -20 -27z m2716 -44 c8 -3 10 -9 5 -14 -5 -5 -11 -4 -13 4 -3
6 -13 12 -24 12 -11 0 -22 8 -26 18 -3 9 -13 26 -22 37 -9 11 2 3 25 -16 23
-20 47 -39 55 -41z m-2077 -13 c20 -9 46 -13 59 -10 12 3 39 -1 59 -10 21 -8
43 -15 50 -14 7 0 3 4 -9 9 -13 5 -23 14 -23 19 0 6 14 4 33 -3 17 -7 38 -11
45 -9 6 3 12 0 12 -6 0 -6 3 -10 8 -10 24 4 42 -3 42 -17 0 -13 3 -14 14 -5
11 9 19 7 38 -12 24 -24 79 -43 106 -38 8 1 20 -3 27 -9 8 -7 19 -9 25 -5 5 3
10 1 10 -4 0 -16 27 -13 33 4 5 13 10 13 41 0 34 -14 55 -7 41 15 -3 5 15 0
40 -11 25 -11 49 -18 54 -15 18 12 100 16 106 6 10 -16 28 -12 21 5 -6 17 5
20 19 6 6 -5 26 -10 45 -11 62 -3 70 -1 63 17 -4 11 -3 14 5 9 7 -4 12 -14 12
-22 0 -12 7 -14 28 -10 67 15 85 16 98 5 11 -9 14 -8 14 5 0 9 5 16 11 16 5 0
7 5 4 10 -9 14 7 13 30 -3 34 -21 60 -15 58 13 -2 24 -2 24 8 -3 6 -15 15 -25
20 -21 12 7 51 16 67 14 6 0 23 -2 36 -3 13 -1 22 -5 19 -9 -2 -5 12 -8 32 -8
20 0 44 -7 52 -16 13 -12 18 -13 24 -3 6 11 9 10 14 -3 4 -10 13 -14 21 -11
18 7 84 -27 84 -43 0 -13 39 -63 40 -51 0 5 -7 15 -15 23 -26 26 -16 39 10 14
14 -13 25 -29 25 -35 0 -7 13 -26 30 -43 16 -17 27 -38 24 -45 -3 -8 1 -17 9
-20 11 -4 13 0 10 16 -4 20 -3 21 10 5 8 -10 18 -14 22 -10 5 4 5 2 2 -5 -9
-15 3 -44 15 -37 6 4 5 -4 -2 -16 -6 -12 -8 -25 -4 -28 4 -4 9 -1 11 6 8 20
22 14 16 -8 -3 -11 -9 -17 -14 -14 -5 3 -9 -7 -9 -22 0 -21 4 -25 20 -21 11 3
18 1 14 -4 -3 -5 -17 -9 -32 -9 -31 0 -17 -20 16 -23 17 -1 19 -4 10 -21 -8
-15 -8 -21 1 -24 6 -2 11 -8 11 -14 0 -6 -8 -7 -17 -4 -17 6 -17 5 0 -8 9 -7
17 -19 17 -25 0 -7 4 -10 9 -7 5 3 7 15 4 26 -3 10 1 25 9 33 14 14 38 12 38
-4 0 -4 -7 -6 -15 -3 -16 6 -21 -20 -9 -50 7 -18 34 -22 34 -5 0 5 -4 8 -9 4
-5 -3 -12 -1 -16 5 -3 5 -2 10 4 10 5 0 16 3 24 6 12 4 14 0 10 -18 -5 -23 -5
-23 10 -3 9 11 17 18 17 15 7 -31 7 -40 -1 -40 -4 0 -13 -10 -20 -21 -8 -17
-8 -20 1 -14 9 5 10 1 5 -14 -5 -15 -1 -23 12 -29 22 -8 30 -34 8 -26 -8 4
-15 1 -15 -5 0 -6 5 -11 11 -11 6 0 9 -9 6 -20 -3 -11 -2 -20 3 -20 4 0 10 -8
13 -19 3 -14 0 -17 -14 -14 -15 4 -18 1 -13 -11 3 -9 2 -16 -4 -16 -6 0 -12 6
-15 13 -2 6 -8 0 -12 -15 -6 -23 -12 -26 -43 -25 -21 1 -40 6 -44 12 -4 5 -10
6 -15 2 -12 -13 19 -27 44 -20 20 4 23 1 23 -21 0 -15 6 -33 12 -40 11 -11 15
-11 26 3 11 14 12 13 2 -6 -6 -14 -16 -20 -26 -16 -8 3 -14 2 -13 -3 3 -20 -2
-32 -17 -38 -14 -5 -15 -4 -5 8 13 15 11 37 -4 49 -6 6 -6 10 3 14 17 7 15 23
-3 23 -8 0 -15 -7 -15 -15 0 -18 -16 -20 -23 -2 -3 6 -6 2 -6 -10 -1 -13 0
-24 1 -25 1 -2 -4 -13 -11 -25 -6 -13 -7 -23 -2 -23 5 0 11 6 14 13 2 6 8 8
13 4 4 -4 3 -17 -4 -27 -7 -11 -8 -20 -3 -20 8 0 8 -21 1 -40 -1 -3 -2 -8 -1
-12 0 -5 -6 -8 -15 -8 -8 0 -12 -4 -9 -10 3 -5 2 -10 -2 -10 -5 0 -13 8 -20
19 -6 10 -23 19 -37 20 -48 3 -55 4 -51 12 3 4 15 5 28 2 22 -5 22 -5 2 10
-25 21 -61 21 -69 2 -3 -8 -10 -15 -17 -15 -6 0 -9 6 -6 13 5 12 -20 15 -158
15 -33 0 -68 0 -77 0 -10 1 -18 -2 -18 -6 0 -4 -22 -7 -49 -7 -27 0 -47 3 -44
8 6 10 -11 9 -41 -3 -18 -6 -26 -6 -26 1 0 6 -7 3 -16 -5 -8 -9 -20 -14 -25
-11 -5 4 -9 1 -9 -5 0 -7 -8 -9 -20 -5 -15 5 -20 2 -20 -12 -1 -17 -2 -17 -15
1 -13 17 -15 18 -15 3 0 -20 -4 -21 -31 -7 -22 12 -25 1 -6 -20 6 -8 8 -11 3
-7 -12 9 -39 -30 -31 -43 3 -6 0 -13 -8 -16 -9 -3 -13 -13 -10 -24 3 -10 -3
-34 -12 -52 -9 -18 -18 -60 -20 -93 -2 -33 -7 -68 -10 -78 -4 -10 -5 -21 -1
-24 3 -4 6 -1 6 5 0 7 7 12 15 12 9 0 12 -6 9 -15 -4 -8 -1 -15 5 -15 6 0 11
-8 11 -17 0 -15 2 -16 10 -3 8 13 10 12 10 -2 0 -25 27 -22 33 3 4 15 2 19 -9
15 -8 -3 -14 1 -14 9 0 11 7 11 35 4 37 -10 75 -4 75 11 0 5 22 12 49 16 40 5
48 10 44 23 -3 10 -2 12 4 5 13 -19 73 -30 154 -29 70 0 75 -1 58 -16 -17 -14
-14 -16 39 -17 117 -2 115 -1 97 -28 -13 -21 -13 -24 -1 -24 8 0 18 -5 22 -11
4 -7 1 -10 -7 -7 -8 3 -23 1 -34 -5 -21 -12 -175 -17 -175 -7 0 4 -14 6 -30 5
-17 -1 -35 4 -42 12 -6 7 -19 11 -29 8 -12 -4 -19 -1 -19 6 0 7 -3 10 -6 6 -3
-3 -27 1 -52 8 -25 8 -48 13 -50 10 -2 -2 12 -14 32 -27 20 -13 36 -31 36 -40
0 -11 8 -18 19 -18 11 0 21 -5 23 -11 6 -18 198 -33 243 -19 17 6 50 12 75 15
52 7 55 9 45 32 -5 12 -9 14 -12 5 -3 -6 -9 -10 -14 -7 -5 4 3 17 17 30 15 14
30 22 35 19 5 -3 9 2 9 12 0 12 5 15 23 9 12 -4 29 -7 38 -8 9 -1 15 -6 12
-12 -2 -7 3 -12 11 -12 8 0 13 4 10 9 -3 4 9 8 27 8 l31 0 -17 26 c-9 14 -14
32 -11 40 7 18 36 18 36 0 0 -18 27 -29 36 -14 4 7 10 4 17 -8 10 -17 11 -17
18 1 8 17 8 16 6 -5 -1 -19 -7 -25 -24 -24 -29 2 -30 -13 -1 -22 13 -4 24 -2
26 5 7 22 19 11 17 -16 -1 -16 0 -20 2 -11 2 9 11 22 20 30 14 11 15 10 8 -12
-7 -22 -6 -23 8 -12 13 11 15 10 10 -7 -3 -12 -11 -17 -19 -14 -23 9 -12 -41
11 -51 20 -8 19 -8 -2 -19 -29 -13 -30 -27 -1 -19 16 4 19 2 12 -9 -11 -16
-12 -82 -3 -89 4 -3 5 -18 2 -33 -4 -22 -9 -26 -27 -22 -11 4 -16 3 -11 -2 19
-16 35 -52 25 -58 -6 -3 -10 -1 -10 4 0 6 -5 11 -11 11 -7 0 -9 -9 -6 -21 3
-12 1 -33 -4 -47 l-10 -26 22 19 22 20 -12 -23 c-7 -12 -9 -28 -5 -34 5 -8 2
-9 -9 -5 -16 6 -21 -7 -16 -39 0 -4 -5 -11 -13 -15 -10 -7 -8 -9 6 -9 13 0 17
-5 13 -20 -3 -11 -1 -18 4 -14 15 9 10 -33 -6 -49 -16 -17 -10 -28 11 -20 12
4 12 0 4 -22 -7 -18 -7 -32 0 -45 9 -16 8 -18 -6 -13 -15 5 -15 3 0 -26 14
-26 14 -31 2 -31 -8 0 -18 -9 -21 -20 -3 -11 -10 -20 -15 -20 -5 0 -6 -17 -4
-37 4 -28 3 -34 -5 -23 -17 25 -24 3 -8 -29 12 -25 13 -29 0 -24 -7 3 -13 2
-11 -3 3 -9 -5 -14 -23 -14 -5 0 -7 5 -4 10 7 12 3 12 -19 4 -13 -5 -14 -9 -5
-20 6 -8 17 -14 24 -14 12 0 25 -21 25 -42 0 -6 -7 -8 -15 -4 -8 3 -15 1 -15
-4 0 -6 -5 -10 -12 -10 -6 0 -5 7 5 18 28 31 -18 59 -47 30 -18 -18 -19 -30
-6 -38 8 -5 9 -10 2 -14 -6 -3 -13 3 -17 14 -7 20 -25 28 -25 10 0 -5 5 -10
10 -10 6 0 10 -5 10 -10 0 -17 53 -59 73 -60 16 0 17 2 3 15 -8 8 -19 15 -25
15 -6 0 -11 4 -11 9 0 5 11 8 25 7 16 0 23 -6 20 -13 -2 -7 0 -13 5 -13 6 0
10 -9 10 -20 0 -13 -7 -20 -19 -20 -11 0 -21 -4 -23 -10 -1 -5 -18 -14 -36
-20 -28 -8 -33 -7 -28 6 3 9 1 12 -4 9 -6 -3 -10 -1 -10 6 0 7 -2 10 -5 7 -3
-3 -1 -18 5 -34 10 -29 10 -29 -7 -6 l-16 23 -18 -31 c-11 -17 -19 -37 -19
-45 0 -23 22 -65 31 -59 5 3 9 -2 9 -10 0 -20 -17 -29 -24 -14 -3 7 -3 3 0 -9
4 -18 1 -21 -18 -17 -13 2 -18 2 -11 -2 7 -3 10 -11 7 -18 -3 -8 2 -20 11 -29
8 -9 11 -18 6 -22 -5 -3 -12 4 -16 14 -4 13 -12 18 -23 15 -14 -5 -15 -4 -2 5
10 7 11 11 3 11 -7 0 -13 7 -13 15 0 8 -5 15 -11 15 -7 0 -9 -10 -7 -25 3 -14
0 -25 -6 -26 -6 0 -1 -5 12 -11 17 -9 22 -17 18 -34 -4 -13 0 -27 9 -34 8 -7
15 -18 15 -24 0 -6 -4 -5 -9 3 -7 10 -13 11 -30 2 -18 -10 -21 -9 -22 6 -1 17
-2 17 -6 1 -2 -10 -11 -18 -20 -18 -12 0 -13 -3 -4 -13 11 -14 5 -27 -11 -27
-5 0 -6 5 -3 10 6 9 -9 10 -55 1 -3 -1 1 -5 9 -10 23 -15 22 -41 -1 -38 -12 1
-23 -4 -26 -12 -3 -9 0 -11 9 -7 8 5 8 2 -2 -6 -8 -7 -19 -22 -23 -33 -8 -19
-8 -19 -17 3 -4 12 -6 30 -3 40 3 9 -2 6 -10 -8 -8 -14 -15 -34 -15 -45 -1
-15 1 -17 8 -7 6 10 11 7 19 -15 5 -15 13 -37 17 -48 6 -15 3 -14 -11 5 -10
14 -18 28 -17 31 1 3 -10 6 -25 5 -16 -1 -27 -7 -27 -15 0 -8 -6 -16 -13 -19
-7 -2 -11 2 -10 10 2 9 -6 12 -24 10 -14 -1 -29 2 -33 8 -3 5 -11 10 -17 10
-7 0 -7 -4 -1 -12 6 -7 13 -25 17 -40 5 -23 3 -27 -11 -22 -15 5 -15 4 -3 -5
8 -5 11 -14 6 -18 -4 -4 -19 6 -34 22 -15 18 -23 22 -19 11 6 -14 4 -17 -8
-12 -9 3 -15 0 -15 -9 0 -8 6 -14 12 -13 7 2 14 -8 16 -22 4 -24 3 -24 -28 8
-30 32 -56 39 -31 9 6 -8 9 -21 5 -30 -8 -22 -56 -17 -71 8 -12 19 -12 19 -13
-5 0 -20 -2 -22 -10 -10 -9 13 -10 13 -11 0 -1 -8 0 -21 1 -29 1 -9 -4 -12
-14 -8 -10 4 -16 1 -16 -7 0 -9 -9 -13 -25 -11 -17 1 -32 -5 -43 -19 -16 -20
-52 -24 -52 -6 0 4 9 6 20 3 12 -3 20 0 20 7 0 6 -10 10 -22 8 -17 -2 -23 -9
-22 -25 0 -13 -3 -23 -8 -23 -4 0 -8 10 -8 22 0 12 -3 18 -6 15 -4 -4 -15 2
-25 14 -9 11 -19 16 -21 11 -5 -13 -58 -24 -58 -12 0 5 -9 10 -20 10 -13 0
-18 5 -14 15 10 25 -13 17 -31 -12 l-18 -26 -12 23 -12 22 -6 -22 c-3 -12 -10
-19 -16 -15 -6 3 -11 1 -11 -5 0 -6 7 -13 15 -16 24 -9 17 -22 -10 -20 -14 0
-27 7 -30 14 -3 7 0 10 5 7 6 -3 10 -1 10 4 0 15 -23 14 -38 -1 -8 -8 -15 -8
-28 3 -13 11 -18 11 -21 2 -6 -18 -23 -16 -23 1 0 8 -8 13 -17 11 -10 -1 -28
2 -40 6 -19 7 -23 5 -24 -14 l-2 -22 -4 23 c-2 12 -14 27 -25 33 -15 8 -19 8
-14 0 9 -13 -45 9 -55 22 -7 10 -39 -31 -39 -50 0 -7 -6 -10 -14 -7 -8 3 -12
13 -9 23 3 13 -2 20 -19 24 -13 4 -24 2 -26 -3 -2 -6 -11 -10 -19 -10 -10 0
-13 6 -9 16 3 9 2 12 -5 9 -6 -4 -17 1 -25 11 -12 17 -13 17 -8 2 7 -20 -3
-22 -41 -8 -16 6 -25 16 -22 24 4 9 -2 13 -16 12 -13 -1 -22 5 -22 14 0 8 8
15 17 15 19 0 34 11 15 12 -6 0 -16 2 -22 3 -21 5 -45 0 -45 -11 0 -5 5 -7 12
-3 7 4 8 3 4 -4 -5 -9 -13 -9 -27 -2 -27 15 -24 32 9 52 25 16 25 17 5 18 -12
0 -24 6 -26 13 -3 6 -6 2 -6 -10 -1 -25 -21 -32 -21 -8 0 12 -4 14 -19 5 -13
-7 -22 -7 -26 0 -3 5 -11 10 -16 10 -6 0 -7 -6 -3 -12 5 -7 -7 0 -26 16 -56
46 -73 96 -33 96 8 0 11 5 8 10 -3 6 -15 10 -27 10 -11 0 -22 8 -25 20 -3 11
-9 20 -14 20 -16 0 -10 -19 13 -39 19 -18 19 -21 5 -27 -10 -3 -17 -12 -17
-20 0 -8 -4 -14 -10 -14 -6 0 -6 9 0 25 12 31 2 64 -12 43 -7 -10 -8 -8 -4 5
3 11 0 20 -9 23 -8 4 -12 10 -9 15 3 5 1 9 -5 9 -5 0 -15 -8 -20 -17 -6 -10
-11 -14 -11 -9 0 5 7 17 15 26 12 14 13 21 2 44 -10 23 -16 26 -44 21 -33 -6
-42 2 -23 21 5 5 6 15 0 24 -8 12 -10 12 -15 -2 -6 -16 -9 -15 -27 2 -18 17
-19 21 -7 37 13 15 12 16 -6 10 -20 -7 -20 -7 -1 8 19 14 19 15 1 15 -10 0
-15 3 -12 6 3 4 0 16 -8 28 -8 11 -15 29 -15 39 0 18 -2 18 -24 4 -24 -16 -24
-16 -21 18 2 19 -1 35 -6 35 -8 0 -13 -14 -10 -32 2 -17 -26 5 -41 33 -10 17
-22 28 -27 25 -5 -3 -7 3 -4 14 3 11 9 17 14 14 16 -9 10 13 -7 27 -13 11 -15
10 -12 -6 1 -10 -3 -20 -11 -23 -10 -3 -12 0 -7 13 4 11 0 25 -9 35 -18 20
-10 51 11 43 10 -3 14 2 14 18 0 32 -15 53 -30 44 -8 -5 -11 -3 -8 6 3 8 9 13
14 12 5 -1 9 10 9 23 0 13 -3 24 -8 24 -4 0 -6 3 -5 8 3 15 -15 42 -24 36 -6
-4 -7 -9 -1 -13 6 -3 13 -21 16 -39 6 -30 5 -32 -9 -18 -9 9 -12 21 -8 28 6 9
3 9 -9 -1 -15 -12 -17 -10 -17 16 0 21 7 33 23 42 21 10 21 11 1 6 -14 -4 -24
0 -28 10 -11 31 -23 14 -18 -27 2 -24 5 -56 6 -73 0 -16 6 -33 11 -37 6 -5 3
-8 -7 -8 -9 0 -24 7 -32 16 -12 12 -16 12 -16 2 0 -8 -3 -9 -8 -3 -4 6 -20 12
-37 13 -74 5 -131 51 -140 112 -3 19 -19 78 -35 130 -16 52 -32 113 -36 135
-3 22 -10 45 -14 50 -4 6 -14 30 -20 55 -11 40 -12 67 -8 160 1 14 -1 45 -5
70 -3 25 -8 73 -11 108 -4 54 -2 63 11 58 11 -5 13 -2 9 11 -6 15 -4 15 14 -2
11 -10 20 -15 20 -12 0 16 4 23 19 34 24 19 38 15 45 -9 5 -19 8 -20 15 -8 9
13 10 13 15 0 13 -42 14 -44 15 -22 1 14 -10 33 -25 45 -15 12 -53 45 -85 74
-32 29 -70 55 -84 59 -54 13 -16 69 56 80 27 5 43 -1 77 -25 23 -17 42 -39 42
-49 0 -9 11 -34 25 -54 14 -20 25 -42 25 -47 0 -6 8 -11 18 -11 13 0 14 -2 4
-9 -11 -7 -11 -9 0 -14 24 -9 59 -147 38 -147 -6 0 -10 7 -10 15 0 8 -7 15
-15 15 -20 0 -19 -29 1 -37 8 -3 13 -11 10 -18 -3 -8 2 -16 11 -19 8 -4 13
-12 10 -20 -3 -8 -3 -17 1 -20 3 -4 7 -14 8 -23 2 -11 -1 -12 -8 -5 -5 5 -11
22 -11 36 -2 22 -6 26 -22 21 -11 -4 -35 -7 -53 -8 -27 -2 -32 -5 -30 -23 1
-12 -8 -44 -21 -71 -22 -49 -23 -51 -6 -77 17 -25 19 -26 39 -11 69 50 67 49
77 34 7 -11 9 -11 9 0 0 8 6 11 16 7 8 -3 12 -2 9 4 -3 6 -1 10 4 10 6 0 11
11 11 25 0 18 5 25 20 25 14 0 18 -5 14 -17 -4 -14 -2 -13 7 2 7 11 14 27 15
35 1 8 5 27 9 43 4 15 3 27 -2 27 -4 0 -8 43 -8 95 0 52 3 95 7 95 4 0 7 10 7
23 0 12 1 50 4 85 3 38 1 62 -5 62 -6 0 -5 7 2 15 7 9 14 42 15 74 1 31 4 62
6 67 3 5 5 33 5 61 -1 29 3 53 8 53 5 0 3 7 -5 16 -10 13 -10 17 2 25 8 5 10
9 6 9 -4 0 -3 9 3 19 7 13 7 22 0 26 -5 3 -10 11 -10 16 0 6 4 8 9 4 11 -6 15
5 31 88 6 31 15 55 20 52 5 -3 7 9 5 27 -2 18 2 42 10 55 8 12 10 23 5 25 -6
2 -3 15 5 32 18 35 19 50 3 40 -7 -4 -5 2 5 13 23 26 22 41 -1 19 -18 -16 -19
-14 -16 36 1 29 7 54 13 56 7 2 6 11 -4 25 -21 30 -19 44 13 74 23 22 24 25 7
21 -15 -4 -21 0 -21 13 0 10 3 16 7 14 3 -3 11 7 18 21 14 31 14 37 1 29 -6
-4 -5 5 2 19 6 14 16 26 21 26 5 0 4 -7 -3 -15 -7 -9 -10 -18 -7 -21 8 -9 29
35 22 46 -3 6 1 10 10 10 9 0 14 4 10 9 -3 5 -1 12 5 16 6 4 8 11 5 16 -3 5 0
6 7 4 8 -3 23 2 33 12 36 32 138 106 131 94 -4 -6 -2 -11 3 -11 6 0 11 4 11 9
0 10 38 24 57 22 7 -1 11 4 8 11 -3 7 6 18 20 25 14 6 22 7 19 2 -3 -6 6 -8
22 -5 15 3 32 12 36 21 11 18 29 20 24 3 -1 -7 -1 -10 1 -5 3 4 11 7 19 7 8 0
14 5 14 11 0 5 -4 7 -10 4 -5 -3 -10 -1 -10 4 0 14 1 14 44 -4z m111 -3 c-3
-3 -11 0 -18 7 -9 10 -8 11 6 5 10 -3 15 -9 12 -12z m-845 -6 c0 -3 -4 -8 -10
-11 -5 -3 -10 -1 -10 4 0 6 5 11 10 11 6 0 10 -2 10 -4z m2850 -20 c0 -2 -9
-6 -20 -9 -11 -3 -18 -1 -14 4 5 9 34 13 34 5z m-26 -47 c14 -7 27 -18 30 -25
6 -16 -10 -18 -27 -4 -7 6 -21 17 -32 25 -24 17 -6 20 29 4z m-2866 -16 c-10
-2 -26 -2 -35 0 -10 3 -2 5 17 5 19 0 27 -2 18 -5z m2949 -19 c-3 -3 -12 -4
-19 -1 -8 3 -5 6 6 6 11 1 17 -2 13 -5z m-2942 -54 c-3 -5 -16 -10 -28 -9 -21
0 -21 1 -2 9 28 12 37 12 30 0z m2915 -27 c0 -13 9 -15 48 -10 39 5 43 4 22
-5 -37 -15 -63 -15 -82 2 -22 18 -24 42 -3 34 8 -4 15 -13 15 -21z m-2942 -29
c-4 -3 -26 -7 -50 -9 -31 -3 -37 -2 -23 5 22 10 82 13 73 4z m2981 -40 c10 -9
-35 -3 -49 6 -11 8 -7 9 15 4 17 -4 32 -8 34 -10z m10 -36 c0 -13 -3 -17 -6
-10 -2 6 -12 12 -21 13 -14 0 -13 2 3 9 11 5 21 9 23 9 1 1 2 -9 1 -21z m36
-40 c15 -6 25 -19 25 -32 0 -20 0 -20 -16 0 -8 10 -12 13 -8 5 5 -11 3 -13
-11 -7 -18 7 -18 6 0 -14 10 -11 14 -20 8 -20 -5 0 -19 11 -30 24 -16 18 -18
27 -10 36 9 10 9 11 0 6 -7 -4 -13 -2 -13 3 0 14 23 14 55 -1z m-425 -122 c0
-3 -4 -8 -10 -11 -5 -3 -10 -1 -10 4 0 6 5 11 10 11 6 0 10 -2 10 -4z m490
-10 c0 -3 -4 -8 -10 -11 -5 -3 -10 -1 -10 4 0 6 5 11 10 11 6 0 10 -2 10 -4z
m20 -112 c0 -2 -13 -4 -30 -4 -16 0 -30 4 -30 8 0 5 14 7 30 4 17 -2 30 -6 30
-8z m-390 -4 c0 -5 -4 -10 -10 -10 -5 0 -10 5 -10 10 0 6 5 10 10 10 6 0 10
-4 10 -10z m10 -120 c0 -5 -4 -10 -10 -10 -5 0 -10 5 -10 10 0 6 5 10 10 10 6
0 10 -4 10 -10z m12 -182 c-7 -7 -12 -8 -12 -2 0 14 12 26 19 19 2 -3 -1 -11
-7 -17z m-37 3 c3 -5 1 -12 -5 -16 -5 -3 -10 1 -10 9 0 18 6 21 15 7z m39 -83
c6 -5 2 -8 -11 -8 -15 0 -20 5 -18 18 5 27 6 28 12 12 3 -8 11 -18 17 -22z
m-20 -37 c4 -5 -3 -7 -14 -4 -23 6 -26 13 -6 13 8 0 17 -4 20 -9z m-13 -94
c-10 -9 -11 -8 -5 6 3 10 9 15 12 12 3 -3 0 -11 -7 -18z m-86 -7 c-3 -5 -12
-10 -18 -10 -7 0 -6 4 3 10 19 12 23 12 15 0z m-22 -33 c3 -8 1 -20 -5 -28 -8
-11 -9 -11 -5 2 3 9 0 22 -6 28 -8 8 -8 11 0 11 6 0 13 -6 16 -13z m57 -37 c0
-5 -2 -10 -4 -10 -3 0 -8 5 -11 10 -3 6 -1 10 4 10 6 0 11 -4 11 -10z m48 -51
c-11 -8 -11 -11 1 -18 8 -5 10 -14 6 -22 -6 -9 -11 -6 -17 11 -5 14 -4 27 2
35 6 7 10 17 9 21 -1 5 0 14 1 19 2 6 5 -1 7 -14 3 -13 -1 -28 -9 -32z m-433
11 c-3 -5 -12 -10 -18 -10 -7 0 -6 4 3 10 19 12 23 12 15 0z m370 -20 c-3 -5
-12 -10 -18 -10 -7 0 -6 4 3 10 19 12 23 12 15 0z m-436 -44 c10 -11 2 -13
-43 -12 -49 1 -52 2 -33 13 29 16 62 16 76 -1z m481 -17 c0 -6 -4 -7 -10 -4
-5 3 -10 11 -10 16 0 6 5 7 10 4 6 -3 10 -11 10 -16z m20 -34 c0 -2 -9 -3 -19
-2 -11 0 -18 5 -15 9 4 6 34 0 34 -7z m15 -18 c-12 -10 -14 -16 -7 -21 7 -4
12 -13 12 -19 0 -7 -4 -6 -11 3 -8 11 -12 12 -16 3 -7 -19 -23 -16 -23 4 0 9
3 13 7 10 3 -4 12 2 20 13 8 11 19 20 25 20 7 0 4 -6 -7 -13z m393 -4 c32 -28
37 -60 10 -67 -26 -7 -88 -59 -88 -74 0 -5 -13 -14 -28 -20 -27 -9 -28 -8 -29
23 -1 27 2 32 15 28 10 -4 13 -2 8 5 -4 7 -2 12 3 12 6 0 11 9 11 20 0 11 6
23 13 26 9 3 12 16 9 34 -4 28 -2 30 26 30 16 0 39 -8 50 -17z m-573 -43 c3
-6 -4 -10 -17 -10 -18 0 -20 2 -8 10 19 12 18 12 25 0z m235 -4 c0 -3 -4 -8
-10 -11 -5 -3 -10 -1 -10 4 0 6 5 11 10 11 6 0 10 -2 10 -4z m-177 -13 c-7 -2
-19 -2 -25 0 -7 3 -2 5 12 5 14 0 19 -2 13 -5z m-2828 -13 c3 -5 1 -10 -4 -10
-6 0 -11 5 -11 10 0 6 2 10 4 10 3 0 8 -4 11 -10z m2866 -13 c-6 -8 -7 -18 -3
-22 4 -5 1 -5 -5 -1 -19 10 -16 36 3 36 13 0 14 -3 5 -13z m124 3 c3 -5 1 -10
-4 -10 -6 0 -11 5 -11 10 0 6 2 10 4 10 3 0 8 -4 11 -10z m-35 -4 c0 -2 -7 -6
-15 -10 -8 -3 -15 -1 -15 4 0 6 7 10 15 10 8 0 15 -2 15 -4z m-194 -18 c-4 7
-1 12 8 12 19 0 21 -11 4 -28 -12 -12 -38 1 -38 20 0 6 8 4 17 -3 11 -10 14
-10 9 -1z m256 5 c-6 -2 -9 -10 -6 -15 4 -7 2 -8 -5 -4 -13 9 -5 26 12 25 9 0
8 -2 -1 -6z m-62 -36 c11 -5 9 -6 -4 -4 -11 1 -21 9 -23 17 -3 10 -2 11 4 4 4
-6 15 -14 23 -17z m-2937 -4 c-4 -11 -3 -14 5 -9 7 4 12 3 12 -3 0 -17 -18
-21 -24 -5 -9 23 -7 34 4 34 5 0 6 -7 3 -17z m2987 3 c0 -2 -7 -6 -15 -10 -8
-3 -15 -1 -15 4 0 6 7 10 15 10 8 0 15 -2 15 -4z m0 -89 c0 -5 -4 -5 -10 -2
-5 3 -10 14 -10 23 0 15 2 15 10 2 5 -8 10 -19 10 -23z m220 -39 c0 -23 62
-71 72 -55 4 7 5 20 2 29 -4 12 0 15 16 11 24 -6 25 -16 5 -33 -8 -7 -15 -17
-15 -22 0 -6 -10 -23 -21 -40 -19 -26 -20 -33 -9 -72 20 -72 -1 -202 -40 -244
-11 -11 -20 -26 -20 -32 0 -5 -6 -10 -12 -10 -7 -1 -26 -11 -42 -24 -39 -32
-16 -44 30 -15 l35 21 -7 -38 c-4 -22 -8 -70 -8 -109 -1 -66 -2 -70 -23 -69
-15 0 -27 -9 -37 -30 -9 -17 -16 -26 -16 -21 0 6 -5 3 -10 -5 -11 -18 -30 -20
-48 -7 -9 7 -11 6 -6 -7 5 -12 2 -15 -10 -10 -9 3 -16 11 -17 18 0 6 -2 25 -3
41 -2 17 2 39 8 50 5 11 9 50 8 87 -2 37 2 77 9 89 13 25 19 69 9 69 -8 0 -7
37 2 45 3 3 2 25 -3 48 -8 44 2 67 27 67 8 0 14 -4 14 -10 0 -5 12 -10 27 -10
26 0 26 -1 7 -15 -16 -12 -17 -14 -2 -15 9 0 20 10 23 21 6 17 9 19 16 8 7
-11 9 -11 9 -1 0 7 4 11 9 8 5 -4 7 4 4 16 -4 18 -2 20 6 8 9 -12 11 -12 16 3
4 9 0 23 -9 32 -9 9 -16 23 -16 31 0 8 -4 14 -10 14 -5 0 -10 9 -10 21 0 20
-26 54 -41 54 -23 0 -17 20 17 62 21 27 42 49 46 51 4 2 4 11 1 20 -4 15 -3
15 6 2 6 -8 11 -23 11 -32z m120 12 c0 -11 -7 -20 -15 -20 -13 0 -13 3 -3 20
7 11 14 20 15 20 2 0 3 -9 3 -20z m-50 -51 c0 -11 -3 -11 -24 -3 -23 9 -20 23
4 17 11 -3 20 -9 20 -14z m-280 -119 c0 -5 -5 -10 -11 -10 -5 0 -7 5 -4 10 3
6 8 10 11 10 2 0 4 -4 4 -10z m-50 -245 c0 -8 -4 -15 -10 -15 -5 0 -7 7 -4 15
4 8 8 15 10 15 2 0 4 -7 4 -15z m225 -325 c4 -6 -1 -7 -11 -3 -13 5 -16 3 -11
-10 3 -9 2 -19 -3 -22 -11 -7 -14 28 -3 38 9 10 21 9 28 -3z m-2772 -140 c9
-11 13 -20 7 -20 -5 0 -14 9 -20 20 -6 11 -9 20 -8 20 2 0 11 -9 21 -20z
m2487 -70 c0 -5 -5 -10 -11 -10 -5 0 -7 5 -4 10 3 6 8 10 11 10 2 0 4 -4 4
-10z m-37 -62 c-10 -17 -11 -31 -1 -44 4 -6 2 -11 -7 -11 -8 0 -13 3 -10 5 3
3 0 11 -6 18 -8 9 -7 17 3 28 16 18 32 21 21 4z m-39 -80 c-2 -3 -13 -4 -24
-1 -16 4 -20 1 -18 -18 2 -16 -3 -24 -16 -27 -11 -2 -16 0 -11 7 3 6 11 9 16
6 5 -4 9 -1 9 4 0 6 -4 11 -9 11 -5 0 -11 11 -13 25 -6 27 1 32 18 15 8 -8 15
-6 24 6 13 15 15 14 21 -3 3 -10 5 -21 3 -25z m-108 21 c3 -6 2 -15 -4 -21 -6
-6 -11 -2 -15 11 -5 22 7 29 19 10z m-2168 -27 c2 -7 -5 -12 -17 -12 -14 0
-19 5 -14 15 6 17 25 15 31 -3z m2177 -22 c3 -5 1 -10 -4 -10 -6 0 -11 5 -11
10 0 6 2 10 4 10 3 0 8 -4 11 -10z m-2141 -15 c3 -9 0 -15 -9 -15 -9 0 -12 6
-9 15 4 8 7 15 9 15 2 0 5 -7 9 -15z m39 -50 c-9 -19 -21 -31 -27 -28 -6 4 -6
8 2 11 7 2 12 15 12 28 0 15 6 24 15 24 13 0 12 -5 -2 -35z m2107 -25 c0 -5
-5 -10 -11 -10 -6 0 -8 -7 -5 -16 5 -14 4 -15 -9 -4 -17 14 -21 35 -5 25 6 -3
10 -1 10 4 0 6 5 11 10 11 6 0 10 -4 10 -10z m-1977 -100 c-2 -9 -14 -17 -26
-17 -20 -2 -21 -1 -5 11 10 7 16 15 13 18 -3 2 1 5 9 5 7 0 11 -7 9 -17z
m1884 -72 c-3 -8 -6 -5 -6 6 -1 11 2 17 5 13 3 -3 4 -12 1 -19z m-2049 -69 c9
-12 9 -16 -1 -16 -7 0 -14 9 -14 20 -1 11 -1 18 0 16 2 -2 8 -11 15 -20z
m1932 -25 c0 -8 -5 -12 -10 -9 -6 4 -8 11 -5 16 9 14 15 11 15 -7z m-1930 -19
c0 -8 -2 -15 -4 -15 -2 0 -6 7 -10 15 -3 8 -1 15 4 15 6 0 10 -7 10 -15z m300
-25 c0 -5 -5 -10 -11 -10 -5 0 -7 5 -4 10 3 6 8 10 11 10 2 0 4 -4 4 -10z
m1468 -43 c0 -13 -6 -24 -13 -24 -19 0 -9 44 11 47 1 0 2 -10 2 -23z m56 -2
c-4 -8 -11 -15 -16 -15 -6 0 -5 6 2 15 7 8 14 15 16 15 2 0 1 -7 -2 -15z m-84
-75 c-18 -11 -22 -7 -14 14 5 13 10 14 18 6 8 -8 7 -13 -4 -20z m-1326 -11
c-6 -11 -24 -2 -24 11 0 5 7 7 15 4 8 -4 12 -10 9 -15z m-289 1 c3 -6 -1 -7
-9 -4 -18 7 -21 14 -7 14 6 0 13 -4 16 -10z m415 0 c0 -5 -5 -10 -11 -10 -5 0
-7 5 -4 10 3 6 8 10 11 10 2 0 4 -4 4 -10z m58 -55 c-3 -3 -13 -2 -22 1 -14 5
-15 9 -4 15 13 8 36 -6 26 -16z m222 1 c0 -3 -7 -12 -16 -20 -12 -13 -18 -13
-29 -3 -11 10 -10 13 4 19 19 8 41 10 41 4z m-110 -10 c0 -3 -4 -8 -10 -11 -5
-3 -10 -1 -10 4 0 6 5 11 10 11 6 0 10 -2 10 -4z m1555 -45 c3 -5 2 -12 -3
-15 -5 -3 -9 1 -9 9 0 17 3 19 12 6z m-2043 -50 c8 12 9 12 6 0 -6 -22 -28
-25 -27 -4 0 12 2 14 6 4 5 -11 7 -11 15 0z m1913 -10 c-3 -6 -11 -11 -16 -11
-5 0 -4 6 3 14 14 16 24 13 13 -3z m45 -15 c0 -3 -4 -8 -10 -11 -5 -3 -10 -1
-10 4 0 6 5 11 10 11 6 0 10 -2 10 -4z m-35 -16 c3 -5 1 -10 -4 -10 -6 0 -11
5 -11 10 0 6 2 10 4 10 3 0 8 -4 11 -10z m30 -20 c-3 -5 -11 -10 -16 -10 -6 0
-7 5 -4 10 3 6 11 10 16 10 6 0 7 -4 4 -10z m-20 -45 c-33 -27 -45 -31 -45
-14 0 5 -4 7 -10 4 -5 -3 -10 -1 -10 5 0 6 -4 8 -10 5 -5 -3 -10 -1 -10 5 0
15 32 8 47 -10 9 -11 12 -11 13 -2 0 7 10 17 23 22 34 14 34 11 2 -15z m-217
-143 c6 6 12 8 12 3 0 -16 -53 -65 -72 -65 -11 0 -15 -5 -12 -15 5 -11 2 -13
-10 -9 -20 8 -21 20 0 28 9 3 12 11 8 18 -4 7 -4 10 1 6 4 -4 15 -2 23 5 13
10 14 9 7 -2 -5 -9 -4 -12 3 -7 7 4 8 17 1 39 -9 32 -9 32 9 9 14 -18 20 -20
30 -10z m-1514 -14 c-4 -6 0 -14 7 -19 11 -7 11 -9 -2 -9 -9 0 -21 11 -27 24
-9 21 -8 23 9 19 10 -3 16 -10 13 -15z m1573 6 c-3 -3 -12 -4 -19 -1 -8 3 -5
6 6 6 11 1 17 -2 13 -5z m-1597 -24 c0 -5 -5 -10 -11 -10 -5 0 -7 5 -4 10 3 6
8 10 11 10 2 0 4 -4 4 -10z m1427 -22 c-3 -8 -6 -5 -6 6 -1 11 2 17 5 13 3 -3
4 -12 1 -19z m-1397 -7 c0 -6 -9 -9 -20 -8 -11 1 -20 5 -20 9 0 4 9 8 20 8 11
0 20 -4 20 -9z m1379 -46 c0 -5 -4 -3 -9 5 -5 8 -9 22 -9 30 0 16 17 -16 18
-35z m-1359 25 c0 -5 -5 -10 -11 -10 -5 0 -7 5 -4 10 3 6 8 10 11 10 2 0 4 -4
4 -10z m1313 -24 c4 -10 1 -13 -8 -9 -8 3 -12 9 -9 14 7 12 11 11 17 -5z
m-1208 -26 c3 -5 1 -10 -4 -10 -6 0 -11 5 -11 10 0 6 2 10 4 10 3 0 8 -4 11
-10z m35 6 c0 -3 -4 -8 -10 -11 -5 -3 -10 -1 -10 4 0 6 5 11 10 11 6 0 10 -2
10 -4z m1130 -16 c0 -6 5 -17 12 -24 10 -11 15 -10 27 2 10 10 16 11 19 3 2
-6 18 -11 35 -12 l32 -1 -29 -9 c-17 -4 -32 -6 -34 -4 -2 2 -11 -2 -18 -10
-14 -13 -44 -11 -43 3 2 17 -14 51 -22 46 -5 -3 -9 0 -9 5 0 6 7 11 15 11 8 0
15 -5 15 -10z m-1200 -14 c0 -3 -4 -8 -10 -11 -5 -3 -10 -1 -10 4 0 6 5 11 10
11 6 0 10 -2 10 -4z m1180 -23 c0 -11 -5 -11 -20 -3 -11 6 -20 12 -20 13 0 2
9 3 20 3 11 0 20 -6 20 -13z m-1150 -9 c0 -8 -4 -12 -10 -9 -5 3 -10 10 -10
16 0 5 5 9 10 9 6 0 10 -7 10 -16z m1130 -34 c-13 -25 -71 -45 -82 -28 -11 18
-10 28 2 28 6 0 10 -4 10 -10 0 -5 7 -10 15 -10 8 0 15 5 15 11 0 6 7 8 16 5
13 -5 15 -2 11 13 -3 14 -1 18 9 14 10 -4 11 -10 4 -23z m-389 -46 c-5 -16
-10 -21 -10 -12 -1 18 10 51 15 45 2 -1 -1 -16 -5 -33z m39 -8 c0 -2 -7 -6
-15 -10 -8 -3 -15 -1 -15 4 0 6 7 10 15 10 8 0 15 -2 15 -4z m-571 -26 c-8 -6
-5 -11 11 -20 18 -9 24 -9 30 0 4 7 10 8 13 3 3 -5 3 -13 -1 -18 -9 -13 -42
-18 -42 -7 0 5 -13 15 -30 22 -38 16 -38 25 1 26 17 1 25 -2 18 -6z m771 0 c0
-5 -4 -10 -10 -10 -5 0 -10 5 -10 10 0 6 5 10 10 10 6 0 10 -4 10 -10z m-686
-12 c-3 -5 1 -17 10 -26 14 -16 14 -18 -4 -18 -11 0 -20 3 -21 6 -5 34 -3 47
7 47 7 0 11 -4 8 -9z m36 -8 c0 -5 -5 -10 -11 -10 -5 0 -7 5 -4 10 3 6 8 10
11 10 2 0 4 -4 4 -10z m572 -12 c-7 -7 -12 -8 -12 -2 0 14 12 26 19 19 2 -3
-1 -11 -7 -17z m-542 -38 c0 -5 -2 -10 -4 -10 -3 0 -8 5 -11 10 -3 6 -1 10 4
10 6 0 11 -4 11 -10z m560 0 c0 -5 -4 -10 -10 -10 -5 0 -10 5 -10 10 0 6 5 10
10 10 6 0 10 -4 10 -10z m-510 -19 c0 -6 -4 -13 -10 -16 -5 -3 -10 1 -10 9 0
9 5 16 10 16 6 0 10 -4 10 -9z m440 -3 c0 -4 -14 -8 -31 -8 -17 0 -28 4 -24
10 7 11 55 9 55 -2z m-70 -8 c0 -13 -11 -13 -30 0 -12 8 -11 10 8 10 12 0 22
-4 22 -10z m-330 -21 c0 -4 -7 -6 -15 -3 -8 4 -15 10 -15 15 0 4 7 6 15 3 8
-4 15 -10 15 -15z m170 -49 c8 -5 12 -11 10 -14 -3 -2 -14 2 -24 10 -22 15
-10 19 14 4z"/>
<path d="M3630 10241 c0 -10 19 -25 25 -20 1 2 -3 10 -11 17 -8 7 -14 8 -14 3z"/>
<path d="M3840 10209 c0 -5 5 -7 10 -4 6 3 10 8 10 11 0 2 -4 4 -10 4 -5 0
-10 -5 -10 -11z"/>
<path d="M3211 10214 c0 -11 3 -14 6 -6 3 7 2 16 -1 19 -3 4 -6 -2 -5 -13z"/>
<path d="M3216 10188 c-11 -10 -17 -20 -14 -24 3 -3 17 6 32 19 14 13 20 24
13 24 -7 0 -21 -9 -31 -19z"/>
<path d="M9188 8893 c7 -3 16 -2 19 1 4 3 -2 6 -13 5 -11 0 -14 -3 -6 -6z"/>
<path d="M9200 8851 c0 -5 5 -13 10 -16 6 -3 10 -2 10 4 0 5 -4 13 -10 16 -5
3 -10 2 -10 -4z"/>
<path d="M9280 8830 c0 -6 7 -10 15 -10 8 0 15 2 15 4 0 2 -7 6 -15 10 -8 3
-15 1 -15 -4z"/>
<path d="M4827 8552 c-9 -2 -15 -8 -12 -13 9 -13 46 -11 74 5 25 14 25 14 -10
13 -19 -1 -42 -3 -52 -5z"/>
<path d="M5040 8550 c0 -12 17 -12 45 0 17 7 15 9 -12 9 -18 1 -33 -3 -33 -9z"/>
<path d="M5115 8533 c4 -12 0 -14 -20 -9 -14 4 -25 2 -25 -3 0 -19 31 -20 61
-2 l30 18 -26 5 c-20 4 -25 2 -20 -9z"/>
<path d="M4844 8509 c-3 -5 -14 -7 -25 -4 -11 4 -19 2 -19 -4 0 -6 5 -11 11
-11 5 0 8 -4 4 -10 -3 -5 -12 -7 -20 -3 -8 3 -23 2 -32 -1 -15 -6 -14 -9 7
-20 31 -16 87 -1 70 19 -16 19 1 27 21 9 17 -15 18 -15 16 5 -1 23 -23 36 -33
20z"/>
<path d="M5158 8513 c6 -2 18 -2 25 0 6 3 1 5 -13 5 -14 0 -19 -2 -12 -5z"/>
<path d="M5010 8490 c-13 -8 -13 -10 2 -10 9 0 20 5 23 10 8 13 -5 13 -25 0z"/>
<path d="M5456 8460 c-18 -6 -18 -7 -2 -13 25 -10 56 -9 56 2 0 12 -32 19 -54
11z"/>
<path d="M5252 8445 c9 -10 21 -16 28 -13 7 2 -1 10 -16 17 -27 12 -28 11 -12
-4z"/>
<path d="M4535 8440 c4 -6 11 -8 16 -5 14 9 11 15 -7 15 -8 0 -12 -5 -9 -10z"/>
<path d="M4935 8440 l-30 -8 27 -1 c15 0 30 4 33 9 3 6 5 9 3 9 -2 -1 -16 -5
-33 -9z"/>
<path d="M5078 8443 c-21 -5 -24 -23 -4 -23 22 0 46 11 46 21 0 9 -13 10 -42
2z"/>
<path d="M4488 8413 c7 -3 16 -2 19 1 4 3 -2 6 -13 5 -11 0 -14 -3 -6 -6z"/>
<path d="M4638 8413 c7 -3 16 -2 19 1 4 3 -2 6 -13 5 -11 0 -14 -3 -6 -6z"/>
<path d="M4678 8413 c7 -3 16 -2 19 1 4 3 -2 6 -13 5 -11 0 -14 -3 -6 -6z"/>
<path d="M5255 8390 c3 -5 8 -10 11 -10 2 0 4 5 4 10 0 6 -5 10 -11 10 -5 0
-7 -4 -4 -10z"/>
<path d="M4564 8352 c4 -3 14 -7 22 -8 9 -1 13 0 10 4 -4 3 -14 7 -22 8 -9 1
-13 0 -10 -4z"/>
<path d="M4242 8318 c-7 -7 -12 -19 -11 -27 0 -11 2 -12 6 -3 2 6 11 12 18 12
7 0 15 7 19 15 7 18 -15 20 -32 3z"/>
<path d="M4190 8280 c0 -5 5 -10 10 -10 6 0 10 5 10 10 0 6 -4 10 -10 10 -5 0
-10 -4 -10 -10z"/>
<path d="M4571 7737 c2 -1 13 -9 24 -17 19 -14 19 -14 6 3 -7 9 -18 17 -24 17
-6 0 -8 -1 -6 -3z"/>
<path d="M6145 7139 c-4 -6 -4 -13 -1 -16 3 -4 6 -1 6 6 0 7 5 9 10 6 6 -3 10
-1 10 4 0 14 -17 14 -25 0z"/>
<path d="M6231 7093 c0 -4 4 -17 9 -28 8 -19 9 -19 9 2 1 12 -3 25 -9 28 -5 3
-10 3 -9 -2z"/>
<path d="M6210 7062 c0 -19 -4 -22 -21 -17 -21 7 -21 6 2 -18 17 -17 28 -21
37 -14 18 14 16 -18 -3 -37 -8 -8 -12 -23 -9 -33 4 -13 3 -14 -4 -5 -7 11 -10
9 -15 -7 -3 -12 0 -21 6 -21 23 0 39 17 35 37 -1 11 3 27 10 35 17 22 5 50
-19 43 -11 -4 -19 -2 -19 3 0 6 5 12 12 14 8 3 8 9 0 24 -11 18 -11 18 -12 -4z"/>
<path d="M4364 6749 c-5 -8 1 -10 18 -7 16 3 25 0 25 -8 0 -9 -10 -11 -30 -7
-24 5 -28 3 -22 -8 8 -12 6 -12 -8 0 -15 12 -21 9 -19 -10 0 -3 -16 -6 -36 -7
-20 -2 -41 -7 -46 -12 -15 -15 -26 -12 -20 5 4 8 1 15 -5 15 -6 0 -11 -4 -11
-9 0 -5 -14 -14 -31 -21 -17 -8 -39 -26 -49 -42 -10 -16 -21 -30 -25 -31 -11
-3 -15 -57 -4 -57 5 0 9 -5 9 -11 0 -6 -9 -8 -21 -4 -16 5 -20 3 -17 -6 3 -8
11 -14 19 -14 14 0 25 -7 54 -33 13 -11 15 -11 15 5 0 10 4 14 8 8 4 -5 17
-11 29 -13 17 -2 21 1 17 12 -3 9 -10 14 -14 11 -5 -3 -11 -1 -14 4 -3 5 5 11
19 13 19 4 25 1 23 -11 -2 -9 3 -15 10 -13 19 3 14 -16 -8 -28 -11 -6 -20 -19
-20 -30 0 -11 -12 -27 -26 -36 -27 -18 -17 -35 16 -27 15 4 17 1 13 -16 -5
-19 -2 -20 28 -14 19 3 37 11 41 17 5 7 8 7 8 -2 0 -11 3 -11 15 0 8 7 20 18
27 23 19 15 82 12 101 -3 22 -18 167 -28 194 -13 12 6 24 24 28 41 4 16 12 30
19 30 15 0 43 -33 48 -57 2 -10 10 -17 17 -15 8 2 20 -7 28 -18 8 -12 21 -19
28 -16 8 3 15 0 17 -6 7 -19 79 1 85 23 5 18 7 19 23 4 17 -16 19 -15 31 7 7
13 13 46 14 73 0 28 4 56 8 63 5 7 5 21 2 33 -4 11 -9 36 -11 56 -3 20 -9 42
-14 48 -6 7 -7 15 -3 18 3 4 2 7 -3 7 -5 0 -22 11 -38 25 -32 27 -47 26 -25
-2 13 -17 13 -17 -7 0 -11 9 -25 17 -31 17 -6 0 -13 4 -15 9 -1 6 -23 11 -48
12 -25 1 -52 6 -60 10 -9 4 -47 10 -85 14 -39 4 -74 10 -79 12 -4 3 -12 -1
-17 -8 -6 -10 -11 -11 -16 -3 -11 16 -149 18 -159 3z m91 -9 c-3 -5 -10 -10
-16 -10 -5 0 -9 5 -9 10 0 6 7 10 16 10 8 0 12 -4 9 -10z m-245 -84 c0 -2 -9
-6 -20 -9 -11 -3 -18 -1 -14 4 5 9 34 13 34 5z m160 -51 c-10 -11 -5 -12 24
-4 20 6 41 7 48 3 7 -4 8 -3 4 4 -4 7 -3 12 3 12 5 0 11 -4 13 -10 2 -5 15
-11 31 -12 28 -2 39 -18 12 -18 -8 0 -62 -16 -119 -35 -58 -19 -109 -35 -115
-35 -5 0 -13 9 -16 20 -4 11 -11 17 -17 14 -7 -4 -8 -2 -4 4 4 6 13 9 20 6 8
-3 17 -1 21 5 3 6 15 11 26 11 26 0 53 26 43 41 -4 8 -3 9 4 5 7 -4 12 -2 12
4 0 6 5 8 10 5 8 -5 7 -11 0 -20z m-40 -5 c0 -5 -9 -10 -20 -10 -11 0 -20 5
-20 10 0 6 9 10 20 10 11 0 20 -4 20 -10z m-50 -14 c0 -2 -7 -6 -15 -10 -8 -3
-15 -1 -15 4 0 6 7 10 15 10 8 0 15 -2 15 -4z m287 -38 c27 -3 -1 -17 -55 -28
-31 -7 -64 -15 -72 -19 -8 -4 -28 -5 -44 -1 -26 4 -27 6 -13 18 24 21 108 42
142 36 17 -2 35 -5 42 -6z m33 -18 c0 -5 -5 -10 -11 -10 -5 0 -7 5 -4 10 3 6
8 10 11 10 2 0 4 -4 4 -10z m35 -10 c3 -6 -1 -7 -9 -4 -18 7 -21 14 -7 14 6 0
13 -4 16 -10z m-282 -33 c3 -8 -1 -14 -8 -14 -7 0 -11 6 -8 14 3 7 6 13 8 13
2 0 5 -6 8 -13z m231 -16 c11 -17 -23 -20 -51 -6 l-28 15 37 0 c20 0 39 -4 42
-9z m269 -108 c-7 -2 -19 -2 -25 0 -7 3 -2 5 12 5 14 0 19 -2 13 -5z"/>
<path d="M4115 6470 c3 -5 10 -10 16 -10 5 0 9 5 9 10 0 6 -7 10 -16 10 -8 0
-12 -4 -9 -10z"/>
<path d="M4158 6443 c7 -3 16 -2 19 1 4 3 -2 6 -13 5 -11 0 -14 -3 -6 -6z"/>
<path d="M4375 6370 c-3 -5 -1 -10 4 -10 6 0 11 5 11 10 0 6 -2 10 -4 10 -3 0
-8 -4 -11 -10z"/>
<path d="M5300 6291 c0 -6 4 -13 10 -16 6 -3 7 1 4 9 -7 18 -14 21 -14 7z"/>
<path d="M4700 6259 c0 -6 -5 -7 -10 -4 -6 4 -24 0 -40 -9 -17 -8 -28 -10 -24
-5 6 11 -47 1 -56 -11 -3 -3 -47 -6 -97 -5 -70 0 -93 -3 -93 -13 0 -7 -4 -10
-10 -7 -5 3 -10 0 -10 -8 0 -42 241 -31 387 18 7 2 10 11 7 18 -7 18 -54 41
-54 26z m37 -25 c-3 -3 -12 -4 -19 -1 -8 3 -5 6 6 6 11 1 17 -2 13 -5z"/>
<path d="M3551 6204 c0 -11 3 -14 6 -6 3 7 2 16 -1 19 -3 4 -6 -2 -5 -13z"/>
<path d="M5315 6210 c3 -5 8 -10 11 -10 2 0 4 5 4 10 0 6 -5 10 -11 10 -5 0
-7 -4 -4 -10z"/>
<path d="M5330 6177 c-16 -8 -26 -21 -27 -37 -2 -14 0 -19 4 -10 3 8 18 25 32
37 29 25 28 27 -9 10z"/>
<path d="M5330 6118 c0 -19 2 -20 10 -8 13 19 13 30 0 30 -5 0 -10 -10 -10
-22z"/>
<path d="M5352 6058 c-7 -7 -12 -16 -12 -21 0 -5 7 -1 16 8 9 9 14 18 12 20
-2 3 -10 -1 -16 -7z"/>
<path d="M6283 6026 c4 -10 1 -13 -9 -9 -7 3 -14 1 -14 -4 0 -5 9 -9 20 -10
14 -1 20 4 20 18 0 10 -5 19 -11 19 -6 0 -9 -7 -6 -14z"/>
<path d="M5373 5913 c9 -2 23 -2 30 0 6 3 -1 5 -18 5 -16 0 -22 -2 -12 -5z"/>
<path d="M5381 5893 c0 -6 -4 -20 -7 -30 -5 -14 -4 -15 5 -7 7 7 11 20 8 30
-3 11 -5 14 -6 7z"/>
<path d="M3685 5840 c-3 -5 -1 -10 4 -10 6 0 11 5 11 10 0 6 -2 10 -4 10 -3 0
-8 -4 -11 -10z"/>
<path d="M5341 5743 c0 -7 -14 -19 -31 -28 -16 -9 -30 -23 -31 -33 0 -9 -3
-12 -5 -7 -5 12 -74 7 -74 -5 0 -10 -98 -2 -121 10 -9 5 -19 7 -22 4 -3 -3
-14 -1 -26 5 -13 7 -22 8 -26 1 -3 -6 -18 -7 -32 -4 -19 5 -24 4 -18 -6 5 -9
2 -10 -14 -5 -12 4 -27 2 -34 -3 -7 -5 -22 -8 -34 -7 -12 1 -20 -2 -17 -7 3
-4 0 -8 -5 -8 -6 0 -11 6 -11 13 0 6 -6 3 -12 -7 -8 -15 -8 -21 0 -24 7 -2 12
-8 12 -14 0 -19 62 -68 95 -74 15 -3 38 -12 51 -21 19 -12 24 -13 24 -2 0 8
11 3 25 -13 15 -18 25 -23 28 -15 3 7 6 4 6 -5 1 -10 6 -18 11 -18 16 0 50
-38 37 -43 -7 -2 -6 -9 4 -23 17 -23 76 -25 90 -3 6 10 9 10 9 2 0 -7 5 -13
11 -13 6 0 9 7 5 15 -3 8 -1 15 4 15 6 0 10 -4 10 -9 0 -5 6 -11 14 -14 10 -4
12 3 10 26 -3 30 -2 30 9 11 7 -12 20 -20 30 -19 9 2 17 -3 17 -11 0 -8 6 -14
14 -14 9 0 12 7 9 20 -3 11 -10 20 -15 20 -5 0 -7 4 -3 9 5 9 75 8 105 -1 8
-3 11 -3 7 0 -4 2 -2 11 5 20 11 13 10 14 -14 8 -16 -3 -28 -4 -28 0 0 11 29
34 42 34 10 0 9 -3 -2 -10 -13 -8 -12 -10 3 -10 18 0 24 25 7 35 -5 3 -10 13
-10 21 0 11 7 13 28 8 26 -6 27 -6 7 11 -16 13 -16 15 -3 11 21 -6 45 19 26
28 -8 4 -9 8 -3 11 16 8 6 95 -11 95 -8 0 -14 9 -14 19 0 11 -4 22 -9 25 -5 4
-7 -4 -4 -16 4 -20 3 -21 -7 -5 -6 9 -16 15 -21 11 -6 -3 -28 -7 -49 -8 -28
-2 -40 2 -43 13 -3 9 -5 10 -6 4z m56 -249 c-3 -3 -12 -4 -19 -1 -8 3 -5 6 6
6 11 1 17 -2 13 -5z m-17 -19 c0 -12 -19 -12 -23 0 -4 9 -1 12 9 8 7 -3 14 -7
14 -8z m-60 -25 c-20 -13 -33 -13 -25 0 3 6 14 10 23 10 15 0 15 -2 2 -10z"/>
<path d="M6215 5740 c3 -5 8 -10 11 -10 2 0 4 5 4 10 0 6 -5 10 -11 10 -5 0
-7 -4 -4 -10z"/>
<path d="M6180 5730 c8 -5 20 -10 25 -10 6 0 3 5 -5 10 -8 5 -19 10 -25 10 -5
0 -3 -5 5 -10z"/>
<path d="M6245 5700 c3 -5 11 -10 16 -10 6 0 7 5 4 10 -3 6 -11 10 -16 10 -6
0 -7 -4 -4 -10z"/>
<path d="M3680 5650 c0 -16 4 -30 8 -30 5 0 9 14 9 30 0 17 -4 30 -9 30 -4 0
-8 -13 -8 -30z"/>
<path d="M6208 5653 c7 -3 16 -2 19 1 4 3 -2 6 -13 5 -11 0 -14 -3 -6 -6z"/>
<path d="M3710 5636 c0 -8 -7 -21 -15 -30 -13 -13 -13 -16 1 -30 17 -18 24
-19 48 -10 20 8 21 24 1 24 -8 0 -15 -4 -15 -10 0 -5 -4 -10 -9 -10 -10 0 -8
34 4 63 4 10 3 17 -4 17 -6 0 -11 -6 -11 -14z"/>
<path d="M3740 5630 c0 -5 5 -10 11 -10 5 0 7 5 4 10 -3 6 -8 10 -11 10 -2 0
-4 -4 -4 -10z"/>
<path d="M6211 5569 c-1 -23 4 -36 12 -36 9 0 12 9 9 25 -4 19 -2 23 8 17 9
-5 11 -4 6 4 -4 6 -11 9 -16 6 -4 -3 -11 1 -13 7 -3 7 -6 -3 -6 -23z"/>
<path d="M6140 5579 c0 -5 5 -7 10 -4 6 3 10 8 10 11 0 2 -4 4 -10 4 -5 0 -10
-5 -10 -11z"/>
<path d="M5520 5556 c0 -8 -7 -21 -15 -30 -18 -18 -6 -29 15 -13 17 14 25 57
10 57 -6 0 -10 -6 -10 -14z"/>
<path d="M3740 5551 c0 -5 -9 -7 -20 -4 -14 4 -20 0 -20 -11 0 -9 4 -16 9 -16
5 0 15 -2 23 -5 7 -3 18 6 25 20 9 20 8 25 -3 25 -8 0 -14 -4 -14 -9z"/>
<path d="M6121 5541 c-8 -5 -10 -14 -6 -21 6 -9 10 -8 17 4 12 21 7 28 -11 17z"/>
<path d="M6255 5540 c3 -5 8 -10 11 -10 2 0 4 5 4 10 0 6 -5 10 -11 10 -5 0
-7 -4 -4 -10z"/>
<path d="M6150 5510 c0 -5 5 -10 11 -10 5 0 7 5 4 10 -3 6 -8 10 -11 10 -2 0
-4 -4 -4 -10z"/>
<path d="M6160 5480 c0 -5 5 -10 11 -10 5 0 7 5 4 10 -3 6 -8 10 -11 10 -2 0
-4 -4 -4 -10z"/>
<path d="M6191 5464 c0 -11 3 -14 6 -6 3 7 2 16 -1 19 -3 4 -6 -2 -5 -13z"/>
<path d="M6210 5449 c0 -5 5 -7 10 -4 6 3 10 8 10 11 0 2 -4 4 -10 4 -5 0 -10
-5 -10 -11z"/>
<path d="M5370 5419 c0 -6 7 -9 15 -5 9 3 15 0 15 -9 0 -23 16 -18 17 5 1 15
-4 20 -23 20 -13 0 -24 -5 -24 -11z"/>
<path d="M5475 5410 c3 -5 12 -7 20 -3 21 7 19 13 -6 13 -11 0 -18 -4 -14 -10z"/>
<path d="M5530 5410 c0 -5 5 -10 11 -10 5 0 7 5 4 10 -3 6 -8 10 -11 10 -2 0
-4 -4 -4 -10z"/>
<path d="M6110 5390 c-9 -16 -8 -22 5 -26 9 -4 19 -4 22 0 4 3 -1 6 -11 6 -9
0 -14 5 -11 10 4 6 11 8 16 5 5 -3 6 1 3 9 -8 21 -11 20 -24 -4z"/>
<path d="M5503 5376 c7 -17 -18 -42 -27 -27 -3 5 0 12 6 14 9 4 10 6 1 6 -6 1
-15 -4 -19 -11 -9 -14 21 -37 43 -34 22 4 59 -34 44 -43 -7 -5 -9 -16 -4 -27
6 -16 4 -17 -9 -7 -8 7 -17 10 -20 8 -10 -10 -68 -14 -63 -4 4 5 -12 9 -34 9
-23 0 -41 4 -41 9 0 4 -10 7 -22 7 -13 -1 -33 1 -44 5 -12 4 -25 5 -28 2 -3
-4 -20 -8 -38 -10 -17 -2 -36 -8 -43 -13 -7 -5 -14 -8 -16 -5 -3 2 -41 7 -84
9 -78 5 -126 -3 -263 -45 -17 -6 -41 -8 -51 -4 -11 3 -22 1 -26 -5 -3 -6 -10
-8 -15 -5 -5 3 -11 1 -15 -5 -10 -17 -76 -12 -90 7 -11 15 -15 15 -30 3 -15
-12 -19 -12 -30 4 -13 17 -14 17 -25 -3 -10 -20 -12 -20 -36 -5 -13 9 -26 15
-27 13 -1 -2 -8 -19 -14 -36 -10 -30 -9 -33 8 -33 11 0 18 -4 15 -8 -3 -5 21
-8 52 -8 31 0 93 -3 137 -7 67 -7 99 -4 200 18 99 22 149 27 288 29 111 1 167
-2 167 -9 0 -5 4 -4 8 3 5 7 16 10 25 6 9 -3 14 -11 10 -17 -4 -6 2 -8 15 -5
17 5 22 2 22 -13 0 -18 14 -23 52 -20 9 1 19 -3 23 -9 3 -6 11 -7 17 -4 6 4 8
2 4 -4 -12 -20 11 -21 32 -1 28 25 135 27 125 2 -6 -16 13 -18 22 -3 4 7 11 7
18 2 38 -29 74 -15 45 17 -11 11 -9 13 10 8 25 -6 39 13 26 35 -5 7 -7 21 -5
32 2 12 -1 16 -10 11 -8 -6 -10 -4 -4 6 11 17 7 71 -5 83 -7 7 -10 0 -10 -17
0 -15 -4 -27 -9 -27 -5 0 -7 -8 -4 -19 4 -15 0 -18 -21 -14 -14 3 -23 9 -20
14 3 5 -1 9 -8 9 -10 0 -9 3 2 9 8 6 18 7 24 4 5 -4 7 1 3 11 -4 10 -7 19 -7
20 0 1 -13 1 -30 -2 -16 -2 -30 -10 -30 -18 0 -7 -4 -15 -9 -18 -5 -4 -7 3 -4
14 3 12 2 20 -3 19 -21 -3 -28 2 -14 11 8 5 11 13 6 17 -5 4 -11 3 -13 -3 -2
-7 -13 -10 -23 -7 -11 3 -18 9 -15 13 3 4 -2 10 -10 14 -8 3 -15 1 -15 -4 0
-6 -4 -10 -10 -10 -5 0 -7 6 -4 14 3 8 -3 16 -15 19 -13 3 -21 13 -21 26 0 12
-5 21 -11 21 -6 0 -9 -6 -6 -14z m87 -90 c0 -3 -4 -8 -10 -11 -5 -3 -10 -1
-10 4 0 6 5 11 10 11 6 0 10 -2 10 -4z m26 -23 c-10 -10 -19 5 -10 18 6 11 8
11 12 0 2 -7 1 -15 -2 -18z"/>
<path d="M5405 5360 c4 -6 11 -8 16 -5 14 9 11 15 -7 15 -8 0 -12 -5 -9 -10z"/>
<path d="M5600 5359 c0 -5 5 -7 10 -4 6 3 10 8 10 11 0 2 -4 4 -10 4 -5 0 -10
-5 -10 -11z"/>
<path d="M3825 5270 c-4 -6 -11 -8 -16 -5 -5 4 -9 -1 -9 -9 0 -20 3 -20 42 4
29 17 30 20 11 20 -12 0 -25 -5 -28 -10z"/>
<path d="M6060 5245 c0 -8 7 -15 16 -15 9 0 21 -13 27 -30 12 -32 28 -38 46
-17 8 11 5 19 -14 35 -14 12 -25 19 -25 14 0 -4 -5 1 -11 11 -12 21 -39 23
-39 2z"/>
<path d="M6075 5210 c3 -5 8 -10 11 -10 2 0 4 5 4 10 0 6 -5 10 -11 10 -5 0
-7 -4 -4 -10z"/>
<path d="M4461 5194 c0 -11 3 -14 6 -6 3 7 2 16 -1 19 -3 4 -6 -2 -5 -13z"/>
<path d="M5748 5063 c6 -2 18 -2 25 0 6 3 1 5 -13 5 -14 0 -19 -2 -12 -5z"/>
<path d="M5980 5056 c0 -2 9 -6 20 -9 11 -3 20 -1 20 4 0 5 -9 9 -20 9 -11 0
-20 -2 -20 -4z"/>
<path d="M5970 5024 c0 -14 3 -14 15 -4 8 7 15 14 15 16 0 2 -7 4 -15 4 -8 0
-15 -7 -15 -16z"/>
<path d="M5335 5020 c-3 -5 -17 -10 -30 -10 -12 0 -25 -7 -29 -15 -3 -8 -11
-15 -18 -15 -10 0 -10 2 1 9 8 5 10 14 6 21 -6 10 -11 9 -21 -5 -10 -14 -17
-15 -27 -7 -16 13 -57 5 -57 -12 0 -7 -5 -17 -12 -24 -8 -8 -15 -7 -28 8 -17
19 -17 19 -28 -5 -9 -18 -19 -25 -41 -25 -16 0 -33 5 -37 12 -5 8 -10 7 -18
-4 -6 -8 -18 -17 -26 -21 -10 -3 -7 -6 8 -6 13 -1 21 -4 18 -9 -8 -13 22 -44
35 -36 9 5 10 2 6 -12 -7 -18 -7 -18 8 0 15 20 15 20 16 0 0 -10 3 -13 6 -6 5
14 33 17 33 3 0 -5 -6 -11 -12 -14 -7 -2 -10 -8 -6 -12 4 -4 13 -4 20 2 17 12
60 15 53 2 -4 -5 1 -9 9 -9 9 0 16 6 16 13 0 8 3 9 8 1 8 -13 62 -25 62 -13 0
4 10 9 23 11 12 2 21 9 20 16 -2 6 0 11 5 11 21 -4 34 2 29 14 -3 8 3 13 14
13 14 0 18 -5 13 -21 -4 -15 0 -13 13 8 11 15 23 24 26 20 4 -3 7 -3 7 1 0 9
-41 45 -52 46 -4 0 -5 -9 -3 -20 5 -24 -1 -25 -21 -6 -8 8 -11 22 -8 31 4 10
1 21 -7 26 -11 7 -11 9 4 9 9 0 17 5 17 10 0 6 7 10 15 10 8 0 15 5 15 10 0 6
-4 10 -9 10 -6 0 -13 -4 -16 -10z"/>
<path d="M5942 4995 c0 -16 2 -22 5 -12 2 9 2 23 0 30 -3 6 -5 -1 -5 -18z"/>
<path d="M5141 4984 c0 -11 3 -14 6 -6 3 7 2 16 -1 19 -3 4 -6 -2 -5 -13z"/>
<path d="M5870 4990 c0 -5 5 -10 10 -10 6 0 10 5 10 10 0 6 -4 10 -10 10 -5 0
-10 -4 -10 -10z"/>
<path d="M5495 4970 c3 -5 8 -10 11 -10 2 0 4 5 4 10 0 6 -5 10 -11 10 -5 0
-7 -4 -4 -10z"/>
<path d="M4020 4955 c0 -8 2 -15 4 -15 2 0 6 7 10 15 3 8 1 15 -4 15 -6 0 -10
-7 -10 -15z"/>
<path d="M5405 4957 c-4 -10 -5 -21 -1 -24 10 -10 18 4 13 24 -4 17 -4 17 -12
0z"/>
<path d="M4095 4920 c-3 -5 -1 -10 4 -10 6 0 11 5 11 10 0 6 -2 10 -4 10 -3 0
-8 -4 -11 -10z"/>
<path d="M5940 4906 c17 -15 27 -19 32 -12 5 7 -1 12 -12 14 -11 2 -20 8 -20
13 0 5 -6 9 -12 9 -7 0 -1 -11 12 -24z"/>
<path d="M5896 4905 c4 -8 8 -15 10 -15 2 0 4 7 4 15 0 8 -4 15 -10 15 -5 0
-7 -7 -4 -15z"/>
<path d="M4146 4872 c-2 -4 -1 -14 4 -22 7 -11 9 -9 7 8 -1 24 -3 26 -11 14z"/>
<path d="M4175 4870 c-3 -6 1 -7 9 -4 18 7 21 14 7 14 -6 0 -13 -4 -16 -10z"/>
<path d="M5913 4860 c1 -21 10 -18 13 5 1 8 -2 15 -6 15 -5 0 -8 -9 -7 -20z"/>
<path d="M5830 4856 c0 -15 22 -26 48 -25 9 0 4 5 -12 11 -21 8 -25 13 -15 19
11 7 10 9 -3 9 -10 0 -18 -6 -18 -14z"/>
<path d="M5878 4853 c7 -3 16 -2 19 1 4 3 -2 6 -13 5 -11 0 -14 -3 -6 -6z"/>
<path d="M4180 4830 c0 -5 5 -10 10 -10 6 0 10 5 10 10 0 6 -4 10 -10 10 -5 0
-10 -4 -10 -10z"/>
<path d="M5755 4810 c-3 -5 1 -10 10 -10 9 0 13 5 10 10 -3 6 -8 10 -10 10 -2
0 -7 -4 -10 -10z"/>
<path d="M4285 4724 c21 -15 49 -19 41 -5 -3 5 -18 11 -33 14 -26 5 -26 4 -8
-9z"/>
<path d="M4232 4705 c6 -14 13 -23 16 -21 7 7 -9 46 -18 46 -5 0 -4 -11 2 -25z"/>
<path d="M4262 4700 c0 -14 2 -19 5 -12 2 6 2 18 0 25 -3 6 -5 1 -5 -13z"/>
<path d="M4495 4530 c-3 -5 -1 -10 4 -10 6 0 11 5 11 10 0 6 -2 10 -4 10 -3 0
-8 -4 -11 -10z"/>
<path d="M4660 4526 c0 -8 4 -17 9 -20 5 -4 7 3 4 14 -6 23 -13 26 -13 6z"/>
<path d="M4730 4510 c0 -5 5 -10 10 -10 6 0 10 5 10 10 0 6 -4 10 -10 10 -5 0
-10 -4 -10 -10z"/>
<path d="M4235 4140 c3 -5 8 -10 11 -10 2 0 4 5 4 10 0 6 -5 10 -11 10 -5 0
-7 -4 -4 -10z"/>
<path d="M6026 4141 c-4 -7 -5 -15 -2 -18 9 -9 19 4 14 18 -4 11 -6 11 -12 0z"/>
<path d="M6100 4130 c-8 -5 -12 -12 -9 -15 4 -3 12 1 19 10 14 17 11 19 -10 5z"/>
<path d="M4190 4101 c0 -5 7 -12 16 -15 14 -5 15 -4 4 9 -14 17 -20 19 -20 6z"/>
<path d="M4275 4090 c3 -5 8 -10 11 -10 2 0 4 5 4 10 0 6 -5 10 -11 10 -5 0
-7 -4 -4 -10z"/>
<path d="M6134 4085 c-16 -13 -17 -16 -4 -25 22 -15 33 -12 26 6 -4 12 -2 15
9 10 9 -3 15 0 15 9 0 19 -21 19 -46 0z"/>
<path d="M5917 4058 c-5 -21 -5 -21 7 -6 7 10 15 15 18 12 4 -3 9 -1 13 5 3 6
-2 11 -13 11 -12 0 -22 -9 -25 -22z"/>
<path d="M6070 4071 c0 -6 4 -13 10 -16 6 -3 7 1 4 9 -7 18 -14 21 -14 7z"/>
<path d="M6107 4042 c1 -8 3 -18 3 -23 0 -6 5 -7 10 -4 6 3 10 13 10 21 0 8
-4 13 -9 10 -5 -4 -11 -3 -14 1 -2 5 -2 2 0 -5z"/>
<path d="M5950 4024 c0 -8 5 -12 10 -9 6 4 8 11 5 16 -9 14 -15 11 -15 -7z"/>
<path d="M5985 4030 c-3 -5 -1 -10 4 -10 6 0 11 5 11 10 0 6 -2 10 -4 10 -3 0
-8 -4 -11 -10z"/>
<path d="M4316 4016 c10 -8 15 -18 11 -22 -4 -5 -12 -2 -17 6 -5 8 -12 12 -15
8 -12 -11 44 -41 62 -33 17 6 17 7 1 19 -10 7 -18 18 -18 25 0 6 -10 11 -22
11 -21 0 -21 0 -2 -14z"/>
<path d="M5885 4010 c-3 -5 -2 -10 4 -10 5 0 13 5 16 10 3 6 2 10 -4 10 -5 0
-13 -4 -16 -10z"/>
<path d="M4385 3989 c-4 -6 -5 -12 -2 -15 2 -3 7 2 10 11 7 17 1 20 -8 4z"/>
<path d="M5865 3970 c3 -5 11 -10 16 -10 6 0 7 5 4 10 -3 6 -11 10 -16 10 -6
0 -7 -4 -4 -10z"/>
<path d="M5802 3937 c-8 -10 -6 -13 9 -14 10 -1 19 5 19 13 0 17 -14 18 -28 1z"/>
<path d="M4425 3900 c3 -5 8 -10 11 -10 2 0 4 5 4 10 0 6 -5 10 -11 10 -5 0
-7 -4 -4 -10z"/>
<path d="M5745 3900 c-4 -6 -26 -20 -50 -31 -45 -21 -70 -51 -34 -42 10 3 19
12 19 20 0 8 5 11 11 7 6 -3 15 0 20 7 7 11 9 11 9 1 0 -18 30 11 30 30 1 8 6
6 15 -6 16 -21 19 -18 9 8 -7 18 -20 21 -29 6z"/>
<path d="M5497 3836 c-3 -8 -2 -18 3 -21 13 -8 20 9 11 24 -6 10 -10 9 -14 -3z"/>
<path d="M5594 3818 c3 -15 26 -23 26 -8 0 6 -4 9 -9 6 -5 -4 -12 -1 -14 4 -3
6 -4 5 -3 -2z"/>
<path d="M5635 3800 c-3 -5 -1 -10 4 -10 6 0 11 5 11 10 0 6 -2 10 -4 10 -3 0
-8 -4 -11 -10z"/>
<path d="M5570 3780 c0 -5 5 -10 10 -10 6 0 10 5 10 10 0 6 -4 10 -10 10 -5 0
-10 -4 -10 -10z"/>
<path d="M5540 3753 c-8 -3 -20 -11 -26 -19 -6 -8 -20 -15 -30 -17 -31 -5 -65
-27 -58 -38 4 -7 10 -6 19 1 7 6 24 13 36 15 13 3 29 12 35 20 6 8 19 15 28
15 9 0 16 7 16 15 0 8 -1 15 -2 14 -2 0 -10 -3 -18 -6z"/>
<path d="M5648 3753 c7 -3 16 -2 19 1 4 3 -2 6 -13 5 -11 0 -14 -3 -6 -6z"/>
<path d="M4660 3720 c0 -5 9 -10 21 -10 11 0 17 5 14 10 -3 6 -13 10 -21 10
-8 0 -14 -4 -14 -10z"/>
<path d="M4775 3710 c-23 -10 -23 -10 30 -14 22 -2 32 -1 23 1 -10 2 -18 9
-18 14 0 11 -8 11 -35 -1z"/>
<path d="M5590 3713 c0 -6 -11 -8 -25 -5 -17 3 -27 -1 -31 -12 -3 -9 -11 -13
-18 -9 -7 4 -7 2 1 -7 9 -10 15 -10 26 -1 8 6 22 9 31 5 16 -6 35 21 22 33 -3
4 -6 2 -6 -4z"/>
<path d="M4717 3675 c3 -8 9 -12 14 -9 12 7 11 11 -5 17 -10 4 -13 1 -9 -8z"/>
<path d="M4835 3670 c7 -11 45 -33 45 -26 0 2 -7 12 -16 20 -17 18 -39 22 -29
6z"/>
<path d="M5595 3670 c-8 -13 5 -13 25 0 13 8 13 10 -2 10 -9 0 -20 -4 -23 -10z"/>
<path d="M5440 3651 c-15 -29 -12 -38 5 -14 8 12 28 24 43 26 25 4 25 4 -5 6
-23 1 -35 -5 -43 -18z"/>
<path d="M5555 3659 c-10 -15 3 -25 16 -12 7 7 7 13 1 17 -6 3 -14 1 -17 -5z"/>
<path d="M5228 3638 c5 -5 16 -8 23 -6 8 3 3 7 -10 11 -17 4 -21 3 -13 -5z"/>
<path d="M4855 3620 c3 -5 8 -10 11 -10 2 0 4 5 4 10 0 6 -5 10 -11 10 -5 0
-7 -4 -4 -10z"/>
<path d="M5032 3598 c2 -12 10 -23 18 -25 13 -4 13 -3 0 7 -12 10 -11 11 8 7
27 -6 29 8 3 23 -28 15 -33 13 -29 -12z"/>
<path d="M5505 3610 c-3 -5 1 -10 9 -10 8 0 18 5 21 10 3 6 -1 10 -9 10 -8 0
-18 -4 -21 -10z"/>
<path d="M4798 3603 c6 -2 18 -2 25 0 6 3 1 5 -13 5 -14 0 -19 -2 -12 -5z"/>
<path d="M4845 3580 c3 -5 8 -10 11 -10 2 0 4 5 4 10 0 6 -5 10 -11 10 -5 0
-7 -4 -4 -10z"/>
<path d="M5441 3576 c-8 -10 -5 -12 12 -12 15 1 22 -5 21 -16 -1 -9 4 -19 11
-22 8 -3 12 2 10 12 -2 9 -4 19 -4 22 -1 3 -10 11 -20 17 -15 10 -22 9 -30 -1z"/>
<path d="M5490 3585 c0 -10 29 -24 34 -17 3 6 -3 12 -14 15 -11 3 -20 4 -20 2z"/>
<path d="M5110 3571 c0 -5 5 -13 10 -16 6 -3 10 -2 10 4 0 5 -4 13 -10 16 -5
3 -10 2 -10 -4z"/>
<path d="M5400 3569 c0 -5 5 -7 10 -4 6 3 10 8 10 11 0 2 -4 4 -10 4 -5 0 -10
-5 -10 -11z"/>
<path d="M4896 3546 c21 -15 30 -14 19 3 -3 6 -14 11 -23 11 -13 0 -13 -2 4
-14z"/>
<path d="M5116 3531 c-4 -5 3 -7 14 -4 23 6 26 13 6 13 -8 0 -17 -4 -20 -9z"/>
<path d="M5016 3515 c-3 -8 -1 -15 3 -15 5 0 11 7 15 15 3 8 1 15 -3 15 -5 0
-11 -7 -15 -15z"/>
<path d="M5516 3487 c3 -10 9 -15 12 -12 3 3 0 11 -7 18 -10 9 -11 8 -5 -6z"/>
<path d="M5343 3213 c15 -2 39 -2 55 0 15 2 2 4 -28 4 -30 0 -43 -2 -27 -4z"/>
<path d="M5518 3187 c42 -21 58 -44 23 -32 -23 7 -61 -22 -61 -47 0 -9 -13
-32 -30 -50 -18 -20 -30 -43 -30 -60 0 -16 -4 -28 -10 -28 -5 0 -12 -10 -15
-23 -4 -13 -19 -36 -36 -51 -25 -24 -34 -48 -30 -78 0 -3 -9 -33 -19 -64 -11
-32 -18 -64 -16 -71 3 -7 0 -15 -5 -19 -6 -3 -8 -19 -5 -35 3 -15 2 -31 -3
-33 -16 -10 -20 -46 -5 -46 8 0 14 10 14 23 0 13 3 27 7 31 4 3 8 12 10 19 12
52 35 121 57 171 14 33 24 61 22 63 -3 3 10 18 28 34 24 21 32 35 29 52 -3 17
2 26 20 36 15 8 23 19 20 27 -3 8 1 14 10 14 9 0 18 13 22 30 4 17 10 30 15
30 4 0 11 12 14 26 5 18 12 24 22 20 9 -3 12 -1 9 4 -3 6 1 10 9 10 18 0 22
-25 6 -35 -5 -3 -10 -13 -10 -21 0 -12 4 -12 20 -4 11 6 25 8 30 5 6 -4 14 4
19 17 8 18 10 19 10 5 1 -10 6 -15 11 -12 6 3 10 -2 11 -12 0 -16 1 -16 8 2
10 25 -14 45 -113 91 -81 37 -128 46 -58 11z"/>
<path d="M5018 3183 c7 -3 16 -2 19 1 4 3 -2 6 -13 5 -11 0 -14 -3 -6 -6z"/>
<path d="M4900 3130 c0 -5 6 -10 14 -10 8 0 18 5 21 10 3 6 -3 10 -14 10 -12
0 -21 -4 -21 -10z"/>
<path d="M4920 3050 c-10 -24 -10 -32 3 -45 23 -23 40 -19 33 8 -3 12 -6 32
-6 45 0 31 -15 27 -30 -8z"/>
<path d="M5770 3056 c0 -2 8 -10 18 -17 15 -13 16 -12 3 4 -13 16 -21 21 -21
13z"/>
<path d="M5817 3010 c4 -15 2 -19 -10 -14 -12 4 -18 -2 -23 -21 -3 -14 -4 -29
0 -32 3 -4 6 2 6 12 0 14 3 15 15 5 8 -7 15 -9 15 -6 0 4 7 0 16 -9 9 -9 24
-13 35 -10 11 4 19 2 19 -5 0 -7 7 -9 16 -6 8 3 28 -1 45 -9 50 -26 79 -35 79
-25 0 6 -7 10 -16 10 -8 0 -52 26 -97 58 -109 77 -106 76 -100 52z"/>
<path d="M4830 3001 c-25 -7 -25 -7 -3 -13 13 -4 27 0 34 8 12 15 8 16 -31 5z"/>
<path d="M5756 2977 c3 -10 9 -15 12 -12 3 3 0 11 -7 18 -10 9 -11 8 -5 -6z"/>
<path d="M6060 2862 c14 -9 35 -27 48 -39 13 -13 29 -23 37 -23 7 0 16 -5 18
-10 3 -6 4 -5 3 2 -3 14 -105 88 -121 87 -5 0 1 -8 15 -17z"/>
<path d="M5153 2529 c9 -5 17 -17 17 -26 0 -13 3 -14 12 -5 8 8 15 9 25 1 10
-9 13 -7 13 10 0 23 10 25 58 12 17 -5 32 -6 32 -2 0 12 -53 21 -119 21 -43
-1 -52 -3 -38 -11z"/>
</g>
</svg>
